
<!-- Generator: visioncortex VTracer 0.6.4 -->
<svg version="1.1" xmlns="http://www.w3.org/2000/svg" viewBox="0 0 1340 1338" preserveAspectRatio="xMidYMid meet">
<path d="M0 0 C442.2 0 884.4 0 1340 0 C1340 441.54 1340 883.08 1340 1338 C897.8 1338 455.6 1338 0 1338 C0 896.46 0 454.92 0 0 Z " fill="#FEFEFE" transform="translate(0,0)"/>
<path d="M0 0 C7.294 3.477 12.05 7.041 15.143 14.78 C16.254 18.964 16.033 23.222 15.938 27.52 C15.932 28.456 15.927 29.393 15.922 30.357 C15.876 34.374 15.73 37.944 14.688 41.832 C14.126 48.982 14.281 54.45 18.832 60.305 C22.072 62.972 26.156 64.079 30.062 65.494 C34.263 67.08 37.233 69.018 40.688 71.832 C43.159 72.782 43.159 72.782 45.688 73.332 C50.517 74.686 53.862 76.071 56.73 80.41 C59.032 84.608 60.325 88.923 61.625 93.52 C63.153 98.66 64.467 101.379 68.688 104.832 C77.697 113.043 84.248 126.192 84.875 138.52 C84.816 143.035 84.201 147.563 82.688 151.832 C80.448 152.952 78.822 153.119 76.336 153.367 C75.485 153.454 74.634 153.541 73.758 153.631 C72.868 153.718 71.979 153.805 71.062 153.895 C70.165 153.985 69.268 154.076 68.344 154.17 C66.125 154.394 63.907 154.615 61.688 154.832 C60.627 160.982 60.435 167.036 60.375 173.27 C60.331 174.767 60.331 174.767 60.287 176.295 C60.233 182.66 60.859 187.602 64.688 192.832 C66.771 194.831 66.771 194.831 69.125 196.082 C75.234 199.694 79.165 203.05 82.875 209.207 C83.886 210.858 83.886 210.858 84.918 212.543 C89.534 221.124 90.703 230.641 91.473 240.23 C91.766 243.784 92.216 247.298 92.688 250.832 C92.811 251.946 92.935 253.06 93.062 254.207 C94.337 261.599 96.87 268.428 99.723 275.34 C100.665 277.774 101.415 280.196 102.125 282.707 C103.52 287.558 105.431 292.096 107.426 296.727 C109.103 300.855 110.415 305.07 111.695 309.336 C112.726 311.928 113.733 312.924 115.688 314.832 C116.088 315.994 116.088 315.994 116.496 317.18 C118.118 320.792 120.739 322.835 123.75 325.27 C124.332 325.753 124.914 326.236 125.514 326.733 C129.39 329.907 133.363 332.778 137.688 335.32 C142.916 339.272 145.524 344.03 147.59 350.129 C148.098 351.553 148.607 352.977 149.117 354.4 C149.374 355.131 149.631 355.862 149.897 356.615 C151.188 360.235 152.566 363.821 153.941 367.41 C154.492 368.853 155.042 370.296 155.592 371.738 C155.865 372.454 156.138 373.169 156.42 373.906 C156.976 375.364 157.531 376.821 158.086 378.279 C158.911 380.449 159.738 382.617 160.566 384.785 C160.83 385.476 161.095 386.168 161.367 386.88 C163.391 392.143 165.559 397.336 167.82 402.503 C168.688 404.832 168.688 404.832 168.688 407.832 C169.409 407.997 170.131 408.162 170.875 408.332 C175.806 410.962 177.783 415.807 180 420.77 C181.252 426.346 181.884 430.498 179.191 435.75 C177.436 438.512 175.607 441.183 173.688 443.832 C171.712 446.796 171.424 447.512 171.273 450.844 C171.235 451.601 171.196 452.358 171.156 453.139 C171.11 454.317 171.11 454.317 171.062 455.52 C171.024 456.317 170.985 457.114 170.945 457.936 C170.851 459.901 170.768 461.866 170.688 463.832 C166.252 466.05 160.235 465.059 155.304 465.072 C153.092 465.082 150.88 465.113 148.668 465.145 C141.478 465.197 135.26 465.11 128.688 461.832 C128.139 458.214 128.863 456.122 130.812 453.145 C133.312 449.851 135.586 448.69 139.688 447.832 C139.77 446.636 139.852 445.44 139.938 444.207 C140.462 439.892 142.149 437.371 144.688 433.832 C146.757 428.93 147.312 424.091 147.688 418.832 C147.786 417.712 147.786 417.712 147.887 416.57 C148.532 403.825 139.413 394.66 131.855 385.328 C130.862 384.1 129.868 382.872 128.875 381.645 C128.373 381.026 127.87 380.407 127.353 379.769 C122.943 374.28 118.891 368.57 114.96 362.73 C110.65 356.437 105.8 350.78 99.188 346.832 C95.265 344.375 92.421 341.624 89.488 338.055 C87.655 336.537 87.655 336.537 84.84 337.047 C81.866 337.788 78.896 338.532 75.938 339.332 C71.506 340.445 67.222 341.401 62.652 341.638 C60.427 341.784 58.209 342.036 56 342.342 C51.812 342.79 47.758 343.097 43.688 341.832 C39.347 337.952 37.022 333.357 34.438 328.207 C33.731 326.906 33.019 325.608 32.301 324.312 C30.979 321.918 29.704 319.515 28.448 317.083 C26.717 313.761 26.717 313.761 24.466 310.538 C22.688 307.832 22.688 307.832 22.688 305.832 C22.027 305.832 21.368 305.832 20.688 305.832 C20.462 306.498 20.236 307.165 20.004 307.852 C18.294 311.723 16.013 315.038 13.625 318.52 C10.445 323.049 10.445 323.049 7.688 327.832 C3.155 328.029 -0.374 327.387 -4.688 326.02 C-12.47 323.683 -20.311 322.204 -28.312 320.832 C-27.588 321.92 -26.864 323.008 -26.117 324.129 C-10.192 348.257 -10.192 348.257 -10.207 358.434 C-10.072 372.518 -8.96 383.933 -3.312 396.832 C-0.312 405.181 -0.312 405.181 -0.312 407.832 C0.306 407.915 0.925 407.997 1.562 408.082 C2.264 408.33 2.965 408.577 3.688 408.832 C3.985 409.459 4.283 410.086 4.589 410.731 C5.889 413.218 6.94 413.873 9.383 415.191 C10.098 415.585 10.814 415.978 11.551 416.383 C12.297 416.779 13.044 417.174 13.812 417.582 C14.567 417.993 15.321 418.404 16.098 418.828 C17.956 419.839 19.821 420.837 21.688 421.832 C22.08 428.49 19.794 431.801 15.688 436.832 C12.968 439.589 9.987 441.906 6.836 444.151 C1.774 447.779 -2.359 451.822 -6.5 456.457 C-7.678 457.765 -8.859 459.069 -10.043 460.371 C-10.552 460.94 -11.062 461.51 -11.587 462.096 C-17.121 467.663 -17.121 467.663 -21.618 468.302 C-22.842 468.287 -24.067 468.273 -25.328 468.258 C-25.985 468.255 -26.641 468.251 -27.317 468.248 C-28.696 468.237 -30.074 468.218 -31.452 468.189 C-33.57 468.144 -35.687 468.127 -37.805 468.115 C-48.133 468.012 -48.133 468.012 -49.312 466.832 C-49.55 460.307 -49.55 460.307 -48.312 457.832 C-47.302 457.605 -46.291 457.378 -45.25 457.145 C-40.183 455.755 -36.482 453.007 -33.312 448.832 C-32.215 445.757 -31.53 442.818 -30.98 439.602 C-30.261 436.619 -29.139 435.238 -27.312 432.832 C-26.781 430.516 -26.781 430.516 -26.688 428.145 C-26.397 423.916 -26.397 423.916 -25.312 422.832 C-22.781 411.056 -29.466 402.375 -35.312 392.832 C-45.347 376.065 -54.744 359.286 -60.168 340.426 C-62.38 333.48 -65.832 327.178 -69.688 321.02 C-71.567 317.332 -72.144 314.837 -71.312 310.832 C-69.473 306.653 -67.189 302.764 -64.875 298.832 C-64.234 297.718 -63.593 296.604 -62.933 295.456 C-61.076 292.238 -59.198 289.033 -57.312 285.832 C-56.85 285.04 -56.388 284.248 -55.911 283.432 C-53.435 279.195 -50.898 275.003 -48.312 270.832 C-47.954 270.25 -47.595 269.667 -47.226 269.067 C-40.248 257.777 -32.665 247.262 -23.5 237.645 C-18.915 232.822 -15.887 227.956 -13.312 221.832 C-11.938 218.707 -11.938 218.707 -10.312 216.832 C-6.625 216.52 -6.625 216.52 -3.312 216.832 C-3.853 215.602 -4.395 214.373 -4.938 213.145 C-5.297 212.321 -5.657 211.497 -6.027 210.648 C-6.928 208.674 -7.884 206.725 -8.879 204.797 C-12.326 197.962 -13.917 192.453 -14.168 184.801 C-14.357 180.92 -15.22 177.548 -16.312 173.832 C-16.642 173.832 -16.973 173.832 -17.312 173.832 C-17.361 174.412 -17.41 174.992 -17.461 175.59 C-17.909 180.271 -18.611 184.407 -20.312 188.832 C-19.983 189.162 -19.652 189.492 -19.312 189.832 C-19.362 196.078 -20.131 203.355 -23.312 208.832 C-24.488 209.491 -24.488 209.491 -25.688 210.164 C-29.1 212.332 -30.394 215.035 -32.062 218.582 C-32.517 219.475 -32.517 219.475 -32.98 220.387 C-34.458 223.421 -35.332 225.985 -35.766 229.34 C-36.432 233.598 -38.05 236.357 -40.312 239.957 C-43.801 245.511 -43.801 245.511 -45.312 251.832 C-44.983 252.162 -44.652 252.492 -44.312 252.832 C-44.579 259.891 -46.626 266.781 -50.312 272.832 C-51.1 273.11 -51.888 273.389 -52.699 273.676 C-56.83 275.503 -57.958 279.022 -59.875 282.957 C-60.435 284.059 -60.435 284.059 -61.006 285.184 C-62.474 288.085 -63.915 290.998 -65.315 293.934 C-67.206 297.845 -69.291 301.367 -71.812 304.902 C-76.129 311.009 -77.806 315.002 -77.816 322.602 C-79.054 330.659 -84.872 338.172 -89.312 344.832 C-90.991 345.172 -90.991 345.172 -92.703 345.52 C-96.25 346.428 -96.25 346.428 -97.49 348.453 C-98.466 350.551 -99.289 352.652 -100.062 354.832 C-102.988 362.616 -102.988 362.616 -106.312 364.832 C-107.055 366.453 -107.786 368.081 -108.445 369.738 C-109.383 372.002 -110.453 374.157 -111.566 376.34 C-113.462 380.099 -115.289 383.882 -117.066 387.699 C-117.76 389.18 -117.76 389.18 -118.467 390.691 C-119.415 392.723 -120.358 394.756 -121.295 396.793 C-121.756 397.773 -122.217 398.752 -122.691 399.762 C-123.099 400.641 -123.508 401.52 -123.928 402.425 C-126.095 406.193 -128.375 408.374 -132.273 410.277 C-135.653 412.006 -137.473 413.842 -139.938 416.707 C-140.672 417.55 -141.407 418.393 -142.164 419.262 C-143.228 420.534 -143.228 420.534 -144.312 421.832 C-144.961 422.549 -145.609 423.265 -146.277 424.004 C-149.809 428.912 -152.026 434.505 -154.514 439.996 C-158.119 447.798 -161.503 454.559 -169.312 458.832 C-170.091 459.042 -170.87 459.252 -171.672 459.469 C-176.208 460.768 -178.634 461.765 -181.23 465.848 C-182.091 467.666 -182.95 469.486 -183.76 471.327 C-186.804 478.231 -190.955 484.594 -197.312 488.832 C-204.582 490.005 -211.959 490.204 -219.312 489.832 C-219.643 489.502 -219.972 489.172 -220.312 488.832 C-222.785 488.506 -225.242 488.236 -227.723 488 C-229.287 487.84 -230.852 487.679 -232.416 487.518 C-234.87 487.269 -237.324 487.024 -239.78 486.788 C-261.237 484.702 -277.294 479.418 -295.172 467.293 C-301.741 462.846 -308.41 458.553 -315.081 454.26 C-319.919 451.125 -324.713 447.927 -329.441 444.629 C-330.351 443.998 -331.26 443.368 -332.198 442.718 C-334.452 440.707 -335.081 439.806 -335.312 436.832 C-334.535 434.797 -334.535 434.797 -333.375 432.77 C-331.832 430.044 -331.312 429.055 -331.312 425.832 C-332.303 425.502 -333.293 425.172 -334.312 424.832 C-333.769 419.475 -331.868 415.559 -329.375 410.895 C-324.598 402.051 -324.598 402.051 -323.625 392.207 C-323.791 386.824 -320.789 382.8 -318.184 378.27 C-315.833 373.951 -314.188 369.517 -312.508 364.906 C-311.06 361.184 -309.273 357.73 -307.328 354.246 C-306.15 351.75 -306.15 351.75 -305.895 348.508 C-305.233 344.332 -303.712 341.077 -301.75 337.395 C-301.017 335.977 -300.283 334.559 -299.551 333.141 C-299.176 332.424 -298.802 331.707 -298.417 330.968 C-297.058 328.34 -295.756 325.686 -294.456 323.029 C-291.829 317.684 -289.113 312.417 -286.158 307.246 C-281.18 298.509 -276.604 289.583 -272.125 280.582 C-271.809 279.948 -271.494 279.314 -271.169 278.661 C-268.878 274.054 -266.594 269.443 -264.312 264.832 C-254.654 245.313 -244.971 225.882 -233.625 207.27 C-232.61 205.593 -231.596 203.916 -230.582 202.238 C-230.056 201.369 -229.529 200.501 -228.987 199.605 C-227.193 196.635 -225.414 193.656 -223.637 190.676 C-211.724 170.707 -199.604 150.914 -186.016 132.031 C-182.759 127.493 -179.644 122.874 -176.562 118.215 C-169.302 107.264 -161.864 96.453 -153.998 85.927 C-151.416 82.441 -149.098 78.915 -146.938 75.145 C-144.831 71.532 -143.051 68.929 -139.312 66.832 C-135.5 66.082 -135.5 66.082 -132.312 65.832 C-132.177 65.264 -132.042 64.695 -131.902 64.109 C-130.218 58.069 -127.814 53.205 -122.312 49.832 C-118.375 49.895 -118.375 49.895 -115.312 50.832 C-115.312 50.172 -115.312 49.512 -115.312 48.832 C-110.457 48.552 -107.017 49.438 -102.508 51.211 C-101.871 51.458 -101.235 51.706 -100.579 51.96 C-98.527 52.761 -96.482 53.577 -94.438 54.395 C-93.024 54.953 -91.611 55.512 -90.197 56.07 C-86.229 57.642 -82.271 59.236 -78.312 60.832 C-77.404 61.193 -76.495 61.554 -75.558 61.926 C-60.347 67.993 -47.293 76.843 -34.25 86.629 C-33.534 87.162 -32.817 87.694 -32.078 88.242 C-31.447 88.718 -30.815 89.194 -30.165 89.684 C-28.186 90.91 -26.615 91.507 -24.312 91.832 C-22.616 90.451 -21.431 88.887 -20.07 87.18 C-17.525 85.228 -15.423 85.62 -12.312 85.832 C-12.746 84.917 -13.179 84.002 -13.625 83.059 C-14.46 81.276 -14.46 81.276 -15.312 79.457 C-16.148 77.682 -16.148 77.682 -17 75.871 C-18.312 72.832 -18.312 72.832 -18.312 70.832 C-19.668 70.884 -19.668 70.884 -21.051 70.938 C-22.23 70.965 -23.41 70.992 -24.625 71.02 C-25.797 71.054 -26.969 71.089 -28.176 71.125 C-31.312 70.832 -31.312 70.832 -33.125 69.684 C-34.713 67.207 -35.32 64.879 -36 62.02 C-36.251 61.002 -36.503 59.985 -36.762 58.938 C-37.312 55.832 -37.411 52.978 -37.312 49.832 C-38.963 49.502 -40.612 49.172 -42.312 48.832 C-41.837 45.438 -41.36 42.069 -40.688 38.707 C-40.149 35.899 -40.149 35.899 -40.875 33.457 C-41.667 28.704 -39.85 24.265 -38.188 19.832 C-37.362 17.002 -37.342 15.557 -37.562 12.707 C-37.312 8.832 -37.312 8.832 -35.062 6.582 C-31.005 4.388 -26.509 3.114 -22.117 1.762 C-19.383 0.944 -19.383 0.944 -17.289 -0.254 C-11.913 -2.74 -5.419 -1.911 0 0 Z " fill="#344A62" transform="translate(1141.3125,773.16796875)"/>
<path d="M0 0 C0.33 0.33 0.66 0.66 1 1 C4.52 1.381 8.036 1.721 11.566 1.986 C16.502 2.468 19.575 3.131 23 7 C24.016 9.119 24.889 11.278 25.776 13.454 C28.158 18.41 31.732 22.578 35.125 26.875 C36.566 28.726 38.006 30.578 39.445 32.43 C40.08 33.236 40.714 34.043 41.368 34.875 C42.643 36.535 43.838 38.258 45 40 C47.743 40.471 50.196 40.178 53 40 C53.33 39.67 53.66 39.34 54 39 C57.782 39.3 61.442 39.655 65.15 40.477 C71.596 41.899 77.726 42.268 84.312 42.375 C102.392 42.93 119.111 46.634 136 53 C136.706 53.262 137.412 53.523 138.139 53.792 C146.467 56.915 154.434 60.565 162.25 64.812 C162.934 65.178 163.618 65.544 164.322 65.921 C175.811 72.371 185.552 81.062 194.74 90.404 C196.255 91.942 197.783 93.467 199.312 94.99 C204.903 100.598 210.103 106.371 215.052 112.564 C217.104 115.13 219.233 117.61 221.398 120.081 C228.184 127.831 234.556 135.875 240.655 144.176 C241.744 145.652 242.856 147.11 243.977 148.562 C256.912 167.137 254.936 196.991 251.624 218.146 C249.389 228.374 243.126 236.744 237 245 C236.261 246.021 236.261 246.021 235.508 247.062 C227.801 256.912 216.078 264.099 204 267 C191.567 268.38 179.127 266.85 166.875 264.75 C165.679 264.546 164.483 264.341 163.251 264.131 C152.135 262.084 142.01 258.936 132.125 253.438 C130.489 252.554 128.853 251.673 127.215 250.793 C126.369 250.337 125.523 249.881 124.652 249.412 C112.043 242.7 99.246 236.357 86 231 C85.598 232.11 85.598 232.11 85.188 233.242 C84.039 235.909 82.784 237.851 81 240.125 C77.966 244.023 75.8 247.002 74.938 251.938 C74.782 252.792 74.626 253.647 74.465 254.527 C73.218 263.84 72.829 273.161 72.684 282.547 C72.652 284.253 72.652 284.253 72.621 285.993 C72.556 289.579 72.497 293.164 72.438 296.75 C72.394 299.201 72.351 301.651 72.307 304.102 C72.2 310.068 72.098 316.034 72 322 C73.32 322.66 74.64 323.32 76 324 C76.049 328.645 76.086 333.289 76.11 337.934 C76.12 339.514 76.134 341.095 76.151 342.675 C76.175 344.946 76.186 347.217 76.195 349.488 C76.206 350.195 76.216 350.901 76.227 351.629 C76.227 355.322 76.107 356.839 74 360 C73.799 362.76 73.715 365.42 73.722 368.181 C73.713 369.447 73.713 369.447 73.704 370.738 C73.687 373.576 73.684 376.413 73.681 379.251 C73.672 381.281 73.662 383.311 73.651 385.341 C73.623 390.861 73.608 396.381 73.595 401.902 C73.58 407.667 73.553 413.433 73.527 419.198 C73.48 430.12 73.444 441.043 73.411 451.965 C73.365 466.721 73.304 481.477 73.244 496.233 C73.15 519.489 73.077 542.744 73 566 C9.97 566 -53.06 566 -118 566 C-118 496.37 -118 426.74 -118 355 C-68.17 354.67 -18.34 354.34 33 354 C17.853 350.899 17.853 350.899 2.807 348.786 C-7.848 347.596 -17.118 345.327 -26.812 340.688 C-27.755 340.238 -28.697 339.788 -29.667 339.324 C-35.083 336.53 -39.9 333.405 -43 328 C-43.14 323.954 -42.297 321.648 -40.625 318 C-37.448 315.579 -36.445 315.801 -32.562 316.125 C-29.935 316.483 -27.372 316.913 -24.79 317.514 C-19.263 318.477 -13.616 318.305 -8.018 318.35 C-6.513 318.367 -5.008 318.394 -3.503 318.432 C5.385 318.656 12.649 318.651 20 313 C21.375 312.053 21.375 312.053 22.777 311.086 C23.49 310.521 24.203 309.957 24.938 309.375 C25.668 308.805 26.399 308.235 27.152 307.648 C29.482 305.57 30.882 303.888 31.301 300.742 C31.336 292.056 30.31 283.611 29.21 275.005 C28.113 266.315 27.348 257.629 26.704 248.895 C26.304 243.55 25.823 238.241 25.149 232.924 C22.644 213.073 23.932 196.064 30.864 177.263 C33.029 171.272 34.292 165.338 35 159 C34.588 159.424 34.175 159.848 33.75 160.285 C23.687 170.505 12.567 179.066 0.562 186.875 C-4.574 190.235 -9.43 193.793 -14.125 197.75 C-14.905 198.403 -14.905 198.403 -15.701 199.07 C-18.242 201.263 -20.52 203.538 -22.641 206.129 C-24.554 208.458 -26.315 210.29 -28.625 212.188 C-31.989 215.043 -35.057 218.078 -38.125 221.25 C-47.185 230.47 -57.264 238.468 -69 244 C-69.641 244.318 -70.283 244.636 -70.943 244.964 C-77.655 248.159 -84.43 249.567 -91.711 250.891 C-97.273 251.96 -97.273 251.96 -101.094 255.926 C-102.082 259.277 -102.592 262.534 -103 266 C-104.866 267.866 -107.812 267.26 -110.312 267.312 C-111.464 267.35 -112.615 267.387 -113.801 267.426 C-117.644 266.914 -118.442 265.765 -121 263 C-124.831 262.558 -124.831 262.558 -126.484 264.312 C-127.111 265.148 -127.111 265.148 -127.75 266 C-128.493 266.99 -129.235 267.98 -130 269 C-131.875 268.75 -131.875 268.75 -134 268 C-135.25 265.937 -135.25 265.937 -136 264 C-137.083 265.237 -137.083 265.237 -138.188 266.5 C-141 269 -141 269 -143.75 269.375 C-146 269 -146 269 -147 268 C-147.041 265.667 -147.042 263.333 -147 261 C-153.622 264.961 -159.467 269.023 -164.93 274.496 C-167.466 276.339 -168.933 276.305 -172 276 C-172 272 -172 272 -169.594 269.422 C-168.572 268.52 -167.541 267.63 -166.5 266.75 C-165.975 266.291 -165.451 265.832 -164.91 265.359 C-163.616 264.229 -162.309 263.113 -161 262 C-161.675 262.361 -162.351 262.722 -163.047 263.094 C-163.939 263.558 -164.831 264.022 -165.75 264.5 C-167.073 265.196 -167.073 265.196 -168.422 265.906 C-171 267 -171 267 -175 267 C-172.671 261.817 -169.034 258.202 -163.703 256.09 C-162.026 255.601 -160.341 255.143 -158.648 254.711 C-155.955 253.988 -153.464 253.034 -150.875 252 C-146.34 250.306 -141.82 249.319 -137.062 248.5 C-126.533 246.637 -117.806 245.029 -110.523 236.609 C-109.769 235.813 -109.769 235.813 -109 235 C-108.34 235 -107.68 235 -107 235 C-107 234.34 -107 233.68 -107 233 C-106.34 233 -105.68 233 -105 233 C-105 232.34 -105 231.68 -105 231 C-103.382 229.286 -101.704 227.628 -100 226 C-99.122 225.128 -98.245 224.255 -97.34 223.356 C-96.406 222.428 -95.471 221.499 -94.508 220.543 C-92.923 218.965 -91.338 217.387 -89.753 215.808 C-88.672 214.732 -87.59 213.657 -86.507 212.583 C-80.965 207.083 -75.487 201.581 -70.413 195.638 C-68.56 193.49 -66.585 191.487 -64.562 189.5 C-63.543 188.495 -63.543 188.495 -62.504 187.469 C-62.008 186.984 -61.511 186.499 -61 186 C-98.007 201.539 -98.007 201.539 -127 227 C-135.74 235.953 -147.148 236.68 -159 237 C-160.32 240.3 -161.64 243.6 -163 247 C-164.32 247 -165.64 247 -167 247 C-167.99 244.36 -168.98 241.72 -170 239 C-170.387 239.577 -170.773 240.155 -171.172 240.75 C-171.953 241.864 -171.953 241.864 -172.75 243 C-173.26 243.743 -173.771 244.485 -174.297 245.25 C-174.859 245.827 -175.421 246.405 -176 247 C-177.32 247 -178.64 247 -180 247 C-180 244.36 -180 241.72 -180 239 C-180.66 239.99 -181.32 240.98 -182 242 C-182.99 242 -183.98 242 -185 242 C-185.482 235.931 -184.076 232.282 -181.188 227 C-180.471 225.647 -179.756 224.293 -179.043 222.938 C-178.693 222.281 -178.343 221.625 -177.982 220.949 C-177.041 219.08 -176.258 217.203 -175.492 215.258 C-171.723 207.028 -163.15 202.221 -155 199 C-149.179 197.005 -143.615 195.961 -137.5 195.375 C-129.789 194.262 -125.441 190.328 -120 185 C-119.134 184.152 -118.267 183.304 -117.375 182.43 C-115.683 180.743 -114.002 179.045 -112.332 177.336 C-110.286 175.287 -108.201 173.379 -106 171.5 C-102.846 168.804 -99.916 165.952 -97 163 C-93.571 159.535 -90.082 156.259 -86.375 153.098 C-84.418 151.369 -82.517 149.608 -80.625 147.809 C-64.156 132.141 -46.359 120.831 -26.625 109.637 C-25.814 109.174 -25.003 108.712 -24.168 108.235 C-22.429 107.244 -20.686 106.26 -18.941 105.277 C-16.842 104.129 -16.842 104.129 -15.938 101.875 C-16.019 98.113 -17.321 95.498 -18.969 92.152 C-20 90 -20 90 -20.812 87.062 C-21.204 86.382 -21.596 85.701 -22 85 C-23.618 84.629 -23.618 84.629 -25.27 84.25 C-29.884 82.704 -31.146 80.898 -33.875 76.938 C-34.643 75.842 -35.411 74.747 -36.18 73.652 C-37.081 72.339 -37.081 72.339 -38 71 C-39.746 69.254 -42.373 69.54 -44.75 69.25 C-50.13 68.41 -52.471 67.278 -56 63 C-58.665 61.681 -58.665 61.681 -61 61 C-60.812 59.125 -60.812 59.125 -60 57 C-59.206 56.733 -58.412 56.466 -57.594 56.191 C-54.835 55.23 -54.835 55.23 -53.699 52.707 C-53.198 51.274 -53.198 51.274 -52.688 49.812 C-50.505 44.077 -47.881 38.818 -44.947 33.447 C-42.979 29.841 -41.126 26.218 -39.375 22.5 C-34.871 13.536 -28.668 8.898 -20 4 C-19.233 3.562 -18.466 3.123 -17.676 2.672 C-11.894 -0.276 -6.431 -0.701 0 0 Z " fill="#344A62" transform="translate(209,52)"/>
<path d="M0 0 C9.896 3.624 16.822 8.314 21.527 18.059 C21.691 20.84 21.691 20.84 21.527 23.059 C22.847 23.389 24.167 23.719 25.527 24.059 C25.43 26.012 25.332 27.965 25.234 29.918 C25.609 32.657 26.87 33.877 28.527 36.059 C29.188 38.496 29.188 38.496 29.59 41.059 C30.173 44.709 30.173 44.709 31.648 48.059 C32.862 50.82 32.536 52.244 31.527 55.059 C29.68 56.762 29.68 56.762 27.465 58.309 C24.256 61.021 23.614 61.643 22.715 65.934 C23.169 70.692 24.512 75.334 25.777 79.934 C26.083 81.059 26.083 81.059 26.395 82.207 C27.328 85.311 28.15 87.669 30.426 90.02 C32.68 91.134 34.411 91.52 36.902 91.809 C44.733 93.249 53.264 96.423 58.684 102.461 C65.085 112.643 65.391 122.897 63.777 134.559 C63.26 139.734 64.392 143.175 66.34 147.93 C67.753 151.653 68.778 155.38 69.715 159.246 C69.89 159.967 70.065 160.688 70.246 161.43 C71.394 166.526 71.706 171.351 71.777 176.559 C71.913 181.537 72.404 184.793 75.965 188.496 C76.683 189.168 77.401 189.839 78.141 190.531 C81.272 193.847 83.392 197.491 85.652 201.434 C86.081 202.177 86.511 202.92 86.953 203.686 C89.259 207.723 91.449 211.806 93.59 215.934 C96.832 221.939 101.073 226.917 105.527 232.059 C106.516 233.209 107.504 234.36 108.492 235.512 C110.04 237.315 111.588 239.119 113.137 240.921 C128.511 258.835 128.511 258.835 130.59 267.434 C132.883 274.888 140.468 279.211 146.84 283.059 C150.024 285.428 151.562 287.869 153.656 291.203 C155.984 294.755 158.523 298.115 161.09 301.496 C165.528 307.368 169.904 313.28 174.215 319.246 C174.713 319.933 175.21 320.62 175.723 321.328 C183.79 332.521 191.514 343.946 199.166 355.424 C200.589 357.558 202.016 359.689 203.443 361.82 C208.992 370.127 214.356 378.51 219.527 387.059 C220.522 388.682 221.517 390.306 222.512 391.93 C237.38 416.392 252.946 442.248 260.527 470.059 C260.768 470.891 261.009 471.724 261.258 472.582 C262.58 477.923 262.752 483.269 262.84 488.746 C262.858 489.459 262.875 490.173 262.894 490.908 C262.884 497.149 261.4 501.745 257.402 506.684 C248.207 514.28 240.24 515.705 228.527 515.059 C197.851 511.751 170.519 487.045 148.22 467.529 C146.529 466.06 144.823 464.611 143.109 463.168 C134.6 455.987 126.471 448.456 118.383 440.806 C115.725 438.303 113.036 435.833 110.34 433.371 C106.778 430.118 103.222 426.859 99.679 423.584 C98.58 422.569 97.48 421.554 96.38 420.541 C93.753 418.119 91.133 415.691 88.531 413.242 C79.986 405.24 70.911 398.051 61.527 391.059 C61.467 391.673 61.406 392.288 61.344 392.922 C61.26 393.73 61.176 394.538 61.09 395.371 C61.009 396.172 60.927 396.972 60.844 397.797 C60.527 400.059 60.527 400.059 59.527 403.059 C59.365 405.34 59.253 407.625 59.168 409.91 C59.108 411.321 59.046 412.732 58.983 414.143 C58.934 415.254 58.934 415.254 58.884 416.387 C57.937 436.792 54.441 455.971 48.797 475.602 C41.961 499.465 39.715 517.978 50.32 541.125 C51.527 544.059 51.527 544.059 51.527 547.059 C52.125 547.285 52.724 547.512 53.34 547.746 C56.121 549.415 57.092 551.187 58.527 554.059 C58.527 554.719 58.527 555.379 58.527 556.059 C59.455 556.306 60.384 556.554 61.34 556.809 C64.828 558.177 65.939 558.706 67.527 562.059 C67.948 565.917 67.764 569.349 66.527 573.059 C59.86 573.136 53.195 573.112 46.527 573.059 C45.805 573.053 45.082 573.048 44.338 573.043 C39.358 573.005 34.379 572.94 29.4 572.85 C27.704 572.823 26.007 572.802 24.31 572.788 C5.722 572.624 5.722 572.624 -0.473 568.059 C-3.039 565.395 -3.039 565.395 -5.035 562.434 C-5.775 561.38 -6.515 560.327 -7.277 559.242 C-8.002 558.192 -8.726 557.141 -9.473 556.059 C-15.261 548.149 -15.261 548.149 -23.473 543.059 C-25.537 540.443 -26.377 538.726 -26.848 535.434 C-26.389 532.53 -25.508 532.093 -23.473 530.059 C-23.194 529.004 -22.916 527.95 -22.629 526.863 C-21.053 521.678 -18.185 517.787 -15.152 513.34 C-12.064 507.307 -13.509 502.109 -15.223 495.809 C-15.595 494.387 -15.965 492.966 -16.332 491.543 C-16.617 490.438 -16.617 490.438 -16.908 489.311 C-20.001 476.972 -22.161 464.444 -24.166 451.891 C-24.323 450.915 -24.479 449.939 -24.641 448.934 C-24.778 448.065 -24.914 447.196 -25.055 446.301 C-25.449 443.901 -25.449 443.901 -26.473 441.059 C-27.473 425.662 -25.319 412.519 -18.645 398.531 C-13.616 387.922 -14.146 377.574 -14.473 366.059 C-15.661 366.007 -16.85 365.955 -18.074 365.902 C-23.026 365.283 -25.464 363.048 -28.848 359.559 C-32.34 355.883 -32.34 355.883 -36.473 353.059 C-37.133 356.359 -37.793 359.659 -38.473 363.059 C-40.783 363.059 -43.093 363.059 -45.473 363.059 C-45.803 351.179 -46.133 339.299 -46.473 327.059 C-48.453 326.399 -50.433 325.739 -52.473 325.059 C-54.616 324.055 -56.74 323.01 -58.848 321.934 C-60.082 321.308 -61.316 320.682 -62.551 320.057 C-63.191 319.73 -63.831 319.404 -64.49 319.068 C-75.279 313.574 -86.123 308.285 -97.181 303.35 C-102.078 301.161 -106.888 298.883 -111.66 296.434 C-118.047 293.166 -124.608 290.41 -131.255 287.722 C-132.033 287.404 -132.811 287.086 -133.613 286.758 C-134.31 286.478 -135.006 286.198 -135.724 285.909 C-137.473 285.059 -137.473 285.059 -139.473 283.059 C-139.473 282.069 -139.473 281.079 -139.473 280.059 C-138.28 279.562 -137.088 279.066 -135.859 278.555 C-134.292 277.87 -132.726 277.183 -131.16 276.496 C-130.374 276.173 -129.589 275.85 -128.779 275.518 C-124.906 273.787 -122.25 272.534 -120.484 268.543 C-119.738 265.972 -119.043 263.504 -118.598 260.871 C-117.273 256.381 -116.247 255.661 -112.473 253.059 C-110.756 252.202 -109.039 251.347 -107.307 250.522 C-101.094 247.47 -97.726 245.053 -95.16 238.309 C-94.541 236.242 -93.97 234.158 -93.473 232.059 C-93.306 231.467 -93.139 230.876 -92.967 230.266 C-92.335 227.444 -92.106 224.663 -91.859 221.781 C-91.745 220.544 -91.631 219.308 -91.514 218.033 C-91.281 215.461 -91.057 212.888 -90.842 210.314 C-89.517 196.294 -85.841 185.218 -77.824 173.688 C-77.296 172.923 -76.767 172.159 -76.223 171.371 C-75.743 170.707 -75.264 170.043 -74.77 169.359 C-71.804 164.097 -71.208 158.482 -70.66 152.559 C-69.72 143.739 -67.459 135.03 -63.473 127.059 C-63.403 125.642 -63.388 124.223 -63.402 122.805 C-63.298 105.813 -63.298 105.813 -57.488 100.016 C-56.823 99.37 -56.158 98.724 -55.473 98.059 C-54.195 96.251 -52.925 94.438 -51.66 92.621 C-48.75 88.941 -46.939 87.478 -42.285 86.746 C-41.436 86.656 -40.586 86.566 -39.711 86.473 C-36.32 85.845 -34.833 83.478 -32.473 81.059 C-30.129 80.242 -30.129 80.242 -27.473 79.559 C-22.925 78.335 -20.163 77.14 -17.473 73.059 C-17.167 67.651 -19.205 64.309 -22.449 60.234 C-25.728 56.709 -29.387 53.63 -33.082 50.551 C-37.938 45.488 -37.813 39.758 -37.785 33.121 C-37.801 32.348 -37.817 31.576 -37.834 30.779 C-37.842 21.388 -33.958 15.604 -27.473 9.059 C-18.399 0.46 -12.86 -3.486 0 0 Z " fill="#344A62" transform="translate(1065.47265625,84.94140625)"/>
<path d="M0 0 C0.921 -0.004 1.842 -0.008 2.791 -0.012 C3.746 -0 4.7 0.011 5.684 0.023 C7.121 0.006 7.121 0.006 8.588 -0.012 C9.508 -0.008 10.427 -0.004 11.375 0 C12.214 0.003 13.052 0.007 13.916 0.01 C16.65 0.492 17.461 1.203 19.121 3.398 C22.16 9.686 22.802 16.463 23.309 23.336 C23.389 24.329 23.469 25.323 23.552 26.346 C24.229 35.371 24.324 44.354 24.121 53.398 C27.421 53.398 30.721 53.398 34.121 53.398 C34.121 55.378 34.121 57.358 34.121 59.398 C60.851 59.398 87.581 59.398 115.121 59.398 C115.121 64.348 115.121 69.298 115.121 74.398 C88.061 74.398 61.001 74.398 33.121 74.398 C33.121 76.048 33.121 77.698 33.121 79.398 C32.121 80.398 32.121 80.398 30.055 80.496 C26.588 80.447 26.588 80.447 23.121 80.398 C23.136 81.692 23.151 82.986 23.167 84.319 C23.165 89.136 22.839 93.875 22.387 98.668 C22.307 99.511 22.228 100.355 22.146 101.224 C21.978 102.99 21.806 104.755 21.632 106.52 C21.457 108.322 21.291 110.125 21.132 111.928 C20.901 114.552 20.646 117.172 20.387 119.793 C20.286 120.999 20.286 120.999 20.184 122.23 C19.821 125.653 19.365 128.047 17.386 130.899 C13.063 133.762 8.148 133.053 3.121 133.023 C2.028 133.056 0.935 133.088 -0.191 133.121 C-8.116 133.131 -8.116 133.131 -11.555 129.828 C-12.974 126.153 -13.74 122.795 -14.066 118.898 C-14.14 118.157 -14.213 117.416 -14.289 116.653 C-15.418 103.953 -15.569 91.139 -15.879 78.398 C-16.539 78.068 -17.199 77.738 -17.879 77.398 C-17.879 75.088 -17.879 72.778 -17.879 70.398 C-30.419 70.398 -42.959 70.398 -55.879 70.398 C-55.879 74.028 -55.879 77.658 -55.879 81.398 C-57.078 84.792 -58.239 87.63 -59.879 90.773 C-60.492 92.005 -60.492 92.005 -61.117 93.261 C-64.068 99.092 -67.317 104.664 -70.859 110.156 C-72.338 112.53 -73.689 114.863 -74.992 117.328 C-79.943 126.679 -85.35 133.944 -92.879 141.398 C-93.944 142.474 -95.007 143.551 -96.07 144.629 C-103.655 152.288 -103.655 152.288 -107.484 155.762 C-110.402 158.974 -112.011 162.238 -113.816 166.148 C-120.92 180.831 -129.375 191.784 -144.289 199.023 C-146.99 200.136 -146.99 200.136 -147.879 202.398 C-148.051 203.73 -148.175 205.067 -148.273 206.406 C-149.221 218.034 -150.21 230.086 -154.98 240.895 C-156.149 244.152 -156.16 247.069 -156.254 250.523 C-156.691 258.638 -158.344 265.596 -162.879 272.398 C-163.314 275.266 -163.666 278.079 -163.941 280.961 C-164.761 289.162 -164.761 289.162 -165.879 291.398 C-165.948 292.939 -165.963 294.482 -165.941 296.023 C-165.928 297.249 -165.928 297.249 -165.914 298.5 C-165.897 299.44 -165.897 299.44 -165.879 300.398 C-164.947 300.012 -164.015 299.625 -163.055 299.227 C-133.43 287.071 -133.43 287.071 -118.879 289.398 C-111.875 292.94 -104.434 298.734 -101.879 306.398 C-100.012 331.111 -106.255 352.353 -115.52 374.941 C-117.628 380.302 -119.61 385.772 -120.879 391.398 C-120.549 392.058 -120.219 392.718 -119.879 393.398 C-119.807 394.274 -119.735 395.149 -119.66 396.051 C-118.773 406.418 -114.406 412.625 -106.613 419.355 C-104.349 422.023 -104.402 423.57 -104.504 427.023 C-104.517 427.985 -104.53 428.947 -104.543 429.938 C-104.879 432.398 -104.879 432.398 -106.879 434.398 C-109.353 434.641 -109.353 434.641 -112.438 434.629 C-113.545 434.627 -114.653 434.625 -115.795 434.623 C-116.957 434.611 -118.119 434.599 -119.316 434.586 C-120.475 434.585 -121.633 434.585 -122.826 434.584 C-131.458 434.539 -131.458 434.539 -134.879 433.398 C-135.147 432.738 -135.415 432.078 -135.691 431.398 C-136.083 430.738 -136.475 430.078 -136.879 429.398 C-139.908 428.741 -139.908 428.741 -142.879 428.398 C-144.859 424.439 -144.151 419.502 -144.191 415.148 C-144.22 414.111 -144.249 413.073 -144.279 412.004 C-144.345 404.073 -144.345 404.073 -141.918 400.562 C-138.481 395.229 -139.074 389.233 -138.941 383.023 C-138.887 381.734 -138.832 380.445 -138.775 379.117 C-138.566 371.95 -139.082 366.951 -141.879 360.398 C-142.115 357.996 -142.03 355.818 -141.879 353.398 C-143.588 354.265 -143.588 354.265 -145.332 355.148 C-159.38 361.882 -171.397 363.157 -186.68 360.375 C-193.027 359.266 -199.198 359.101 -205.629 359.148 C-206.7 359.141 -207.771 359.133 -208.875 359.125 C-214.15 359.138 -218.76 359.467 -223.818 360.927 C-232.815 362.986 -246.621 363.678 -254.691 358.836 C-256.118 357.728 -257.514 356.581 -258.879 355.398 C-260.683 354.136 -262.495 352.886 -264.316 351.648 C-265.119 351.076 -265.923 350.504 -266.75 349.914 C-268.439 348.712 -270.154 347.548 -271.879 346.398 C-271.928 347.256 -271.977 348.113 -272.027 348.996 C-272.713 359.484 -272.713 359.484 -273.941 363.273 C-275.291 367.772 -275.517 371.616 -273.922 376.07 C-272.446 380.78 -272.152 385.483 -271.756 390.385 C-271.575 394.505 -271.575 394.505 -269.358 397.723 C-267.07 400.315 -267.524 402.607 -267.551 406 C-267.556 407.294 -267.561 408.588 -267.566 409.922 C-267.577 410.594 -267.587 411.267 -267.598 411.96 C-267.629 414.023 -267.639 416.085 -267.645 418.148 C-267.725 428.245 -267.725 428.245 -268.879 429.398 C-271.549 429.54 -274.203 429.441 -276.879 429.398 C-276.961 430.017 -277.044 430.636 -277.129 431.273 C-277.879 433.398 -277.879 433.398 -279.609 434.515 C-282.205 435.525 -284.161 435.657 -286.941 435.664 C-288.384 435.668 -288.384 435.668 -289.855 435.672 C-290.853 435.664 -291.851 435.656 -292.879 435.648 C-293.877 435.656 -294.874 435.664 -295.902 435.672 C-296.864 435.669 -297.826 435.667 -298.816 435.664 C-299.692 435.662 -300.567 435.66 -301.469 435.657 C-304.028 435.382 -305.671 434.688 -307.879 433.398 C-308.156 423.155 -308.156 423.155 -304.996 418.809 C-303.525 417.31 -302.04 415.825 -300.539 414.355 C-299.991 413.71 -299.443 413.064 -298.879 412.398 C-299.112 409.249 -299.112 409.249 -299.879 406.398 C-298.237 404.378 -296.57 402.378 -294.879 400.398 C-294.628 397.231 -294.628 397.231 -294.879 394.398 C-294.219 393.738 -293.559 393.078 -292.879 392.398 C-293.191 387.108 -294.792 382.639 -296.898 377.84 C-297.515 376.386 -298.132 374.932 -298.748 373.479 C-299.712 371.233 -300.679 368.989 -301.651 366.747 C-308.381 351.156 -312.44 337.001 -312.816 319.836 C-312.871 318.536 -312.926 317.236 -312.982 315.896 C-313.211 308.059 -313.304 302.408 -308.047 296.254 C-307.393 295.703 -306.74 295.153 -306.066 294.586 C-305.421 294.023 -304.775 293.459 -304.109 292.879 C-294.953 286.801 -279.714 288.081 -269.312 290.086 C-266.676 291.007 -264.331 292.066 -261.879 293.398 C-260.917 293.892 -259.956 294.386 -258.965 294.895 C-254.513 297.25 -250.189 299.795 -245.879 302.398 C-246.666 297.476 -248.06 293.933 -250.728 289.695 C-254.674 283.407 -256.625 277.962 -257.586 270.578 C-259.374 258.332 -264.461 246.623 -268.742 235.068 C-271.385 227.646 -272.571 219.943 -273.896 212.197 C-274.096 211.123 -274.295 210.048 -274.5 208.941 C-274.669 207.972 -274.839 207.003 -275.013 206.005 C-276.483 201.579 -279.604 199.379 -283.566 197.211 C-296.02 189.595 -305.136 175.645 -309.703 161.922 C-311.227 158.652 -313.229 156.845 -315.879 154.398 C-316.969 153.37 -318.059 152.341 -319.148 151.312 C-320.328 150.215 -321.509 149.119 -322.691 148.023 C-323.312 147.446 -323.932 146.869 -324.571 146.274 C-327.737 143.338 -330.935 140.475 -334.254 137.711 C-344.273 128.915 -350.572 117.064 -357.414 105.802 C-359.248 102.794 -361.116 99.81 -363.004 96.836 C-363.501 96.051 -363.999 95.266 -364.512 94.457 C-365.862 92.362 -365.862 92.362 -367.484 90.367 C-368.915 88.347 -369.512 86.855 -370.066 84.461 C-370.225 83.813 -370.384 83.164 -370.547 82.496 C-370.879 80.398 -370.879 80.398 -370.879 75.398 C-382.759 75.398 -394.639 75.398 -406.879 75.398 C-406.879 79.028 -406.879 82.658 -406.879 86.398 C-407.018 91.017 -407.25 95.628 -407.514 100.241 C-407.59 101.635 -407.66 103.03 -407.723 104.426 C-408.256 116.252 -409.567 128.313 -417.879 137.398 C-423.953 141.322 -430.825 141.405 -437.879 140.398 C-441.359 139.167 -442.946 137.519 -444.879 134.398 C-451.554 120.071 -453.963 101.354 -453.897 85.69 C-453.894 84.885 -453.892 84.079 -453.889 83.25 C-453.886 82.639 -453.882 82.028 -453.879 81.398 C-455.488 81.405 -455.488 81.405 -457.13 81.412 C-467.225 81.452 -477.32 81.482 -487.414 81.502 C-492.605 81.513 -497.795 81.527 -502.985 81.549 C-507.99 81.571 -512.996 81.583 -518.001 81.588 C-519.915 81.592 -521.828 81.599 -523.741 81.61 C-526.413 81.624 -529.085 81.626 -531.757 81.625 C-532.953 81.636 -532.953 81.636 -534.172 81.647 C-539.651 81.627 -539.651 81.627 -541.879 79.398 C-542.217 74.248 -541.863 71.169 -539.879 66.398 C-512.872 65.606 -485.897 65.257 -458.879 65.398 C-458.879 63.418 -458.879 61.438 -458.879 59.398 C-457.229 59.398 -455.579 59.398 -453.879 59.398 C-453.888 58.722 -453.896 58.046 -453.905 57.349 C-453.962 49.267 -453.699 41.218 -453.244 33.151 C-453.167 31.722 -453.097 30.293 -453.035 28.864 C-452.943 26.762 -452.828 24.663 -452.707 22.562 C-452.644 21.33 -452.581 20.097 -452.517 18.827 C-451.614 13.975 -449.484 10.94 -445.957 7.553 C-441.823 5.256 -437.057 5.887 -432.441 5.898 C-430.886 5.856 -430.886 5.856 -429.299 5.812 C-421.706 5.793 -421.706 5.793 -417.789 8.66 C-406.912 24.253 -407.879 47.347 -407.879 65.398 C-395.339 65.398 -382.799 65.398 -369.879 65.398 C-369.219 64.078 -368.559 62.758 -367.879 61.398 C-365.855 60.605 -365.855 60.605 -363.504 60.211 C-362.348 60.004 -362.348 60.004 -361.168 59.793 C-360.413 59.663 -359.657 59.533 -358.879 59.398 C-358.194 59.223 -357.51 59.048 -356.805 58.867 C-353.706 58.113 -351.052 58.12 -347.879 58.398 C-345.316 60.273 -345.316 60.273 -342.879 62.398 C-338.666 64.107 -335.158 64.64 -330.631 64.601 C-328.775 64.592 -328.775 64.592 -326.882 64.584 C-325.521 64.567 -324.16 64.551 -322.799 64.534 C-321.352 64.523 -319.904 64.514 -318.457 64.505 C-314.51 64.479 -310.564 64.44 -306.618 64.399 C-302.422 64.358 -298.225 64.329 -294.028 64.299 C-286.874 64.246 -279.72 64.186 -272.566 64.122 C-261.473 64.022 -250.38 63.936 -239.287 63.854 C-237.92 63.844 -237.92 63.844 -236.524 63.833 C-232.852 63.806 -229.181 63.779 -225.509 63.752 C-220.032 63.712 -214.556 63.671 -209.079 63.629 C-180.158 63.408 -151.239 63.299 -122.316 63.336 C-120.502 63.338 -118.688 63.34 -116.874 63.342 C-107.542 63.353 -98.211 63.37 -88.879 63.398 C-88.6 62.762 -88.322 62.125 -88.035 61.469 C-86.48 58.684 -84.821 58.428 -81.879 57.398 C-81.219 56.738 -80.559 56.078 -79.879 55.398 C-74.268 54.621 -69.176 55.595 -63.879 57.398 C-63.879 58.058 -63.879 58.718 -63.879 59.398 C-62.559 59.068 -61.239 58.738 -59.879 58.398 C-59.549 59.718 -59.219 61.038 -58.879 62.398 C-45.019 62.728 -31.159 63.058 -16.879 63.398 C-16.879 60.758 -16.879 58.118 -16.879 55.398 C-16.549 55.068 -16.219 54.738 -15.879 54.398 C-15.486 51.375 -15.16 48.37 -14.879 45.336 C-14.744 43.949 -14.744 43.949 -14.607 42.535 C-14.13 37.313 -13.807 32.117 -13.668 26.875 C-13.638 25.805 -13.609 24.735 -13.578 23.633 C-13.529 21.554 -13.498 19.475 -13.484 17.396 C-13.351 11.577 -12.899 7.937 -8.879 3.398 C-5.878 0.729 -4.004 0.016 0 0 Z " fill="#354B62" transform="translate(824.87890625,703.6015625)"/>
<path d="M0 0 C7.645 0.474 14.117 1.18 20.84 5.117 C21.871 5.653 22.902 6.19 23.965 6.742 C28.187 10.23 31.085 14.406 33.84 19.117 C34.196 19.676 34.552 20.236 34.918 20.812 C38.899 28.068 38.515 35.901 38.471 43.957 C38.465 46.443 38.512 48.923 38.562 51.408 C38.567 52.995 38.568 54.581 38.566 56.168 C38.585 56.907 38.603 57.645 38.622 58.406 C38.584 60.501 38.584 60.501 37.84 64.117 C35.86 65.48 33.86 66.814 31.84 68.117 C30.925 71.382 30.925 71.382 31.035 75.07 C31.021 75.731 31.008 76.391 30.994 77.071 C30.956 79.17 30.96 81.267 30.965 83.367 C30.947 84.794 30.926 86.221 30.902 87.648 C30.851 91.138 30.835 94.627 30.84 98.117 C31.718 98.077 31.718 98.077 32.613 98.036 C44.934 97.708 54.122 105.466 63.793 112.316 C66.398 114.15 69.029 115.875 71.762 117.512 C80.67 122.854 86.305 128.111 89.84 138.117 C92.799 152.59 90.771 168.98 90.215 183.68 C90.177 184.688 90.139 185.697 90.1 186.736 C88.781 219.235 88.781 219.235 81.84 233.117 C82.832 232.586 83.825 232.055 84.848 231.508 C99.038 224.072 112.519 219.967 128.652 219.805 C129.599 219.776 130.546 219.747 131.521 219.717 C138.212 219.657 142.999 220.88 148.84 224.117 C149.927 224.719 151.013 225.321 152.133 225.941 C159.596 230.746 164.981 235.541 167.84 244.117 C169.31 260.027 166.818 274.789 162.84 290.117 C162.353 292.057 161.868 293.997 161.383 295.938 C158.142 308.74 154.535 321.439 150.84 334.117 C150.549 335.115 150.259 336.113 149.959 337.141 C149.35 339.234 148.739 341.327 148.129 343.421 C147.525 345.49 146.923 347.559 146.32 349.628 C145.066 353.936 143.807 358.241 142.508 362.535 C142.143 363.758 141.778 364.982 141.402 366.242 C141.094 367.255 140.786 368.269 140.469 369.312 C139.274 374.639 139.46 378.369 142.215 383.117 C145.857 388.744 149.929 391.173 155.84 394.117 C158.242 395.32 160.641 396.529 163.032 397.752 C164.701 398.602 166.378 399.436 168.063 400.252 C174.092 403.297 178.766 406.97 181.84 413.117 C181.963 415.448 182.015 417.783 182.027 420.117 C182.042 421.375 182.056 422.633 182.07 423.93 C181.84 427.117 181.84 427.117 179.84 429.117 C167.511 433.332 150.908 431.154 139.191 426.297 C129.127 422.942 116.363 424.171 105.84 424.117 C105.741 419.67 105.668 415.223 105.62 410.775 C105.6 409.264 105.573 407.753 105.538 406.242 C105.489 404.062 105.467 401.883 105.449 399.703 C105.428 398.394 105.407 397.085 105.386 395.736 C105.947 391.259 107.646 388.312 110.84 385.117 C110.965 382.349 111.026 379.604 111.045 376.834 C111.055 375.966 111.065 375.097 111.075 374.203 C111.107 371.319 111.132 368.435 111.156 365.551 C111.177 363.557 111.198 361.563 111.219 359.569 C111.275 354.31 111.324 349.051 111.372 343.792 C111.422 338.429 111.478 333.067 111.533 327.705 C111.641 317.176 111.742 306.647 111.84 296.117 C110.955 296.807 110.07 297.496 109.158 298.206 C107.981 299.118 106.804 300.03 105.627 300.942 C105.046 301.395 104.464 301.849 103.865 302.316 C99.525 305.673 95.124 308.526 90.215 310.992 C89.143 311.562 89.143 311.562 88.05 312.143 C83.901 314.293 80.111 315.601 75.527 316.617 C72.872 317.314 72.872 317.314 70.84 319.117 C68.936 324.002 68.056 328.87 67.214 334.027 C65.645 342.794 62.101 348.939 55.84 355.117 C55.353 355.631 54.867 356.144 54.366 356.673 C49.901 361.313 45.09 365.092 39.84 368.805 C39.072 369.36 38.303 369.915 37.512 370.486 C26.522 378.345 18.219 381.467 4.59 381.43 C2.824 381.454 2.824 381.454 1.023 381.479 C-12.362 381.486 -23.326 377.9 -33.16 368.555 C-35.223 366.391 -36.149 365.147 -37.223 362.305 C-37.687 361.222 -37.687 361.222 -38.16 360.117 C-40.964 358.988 -40.964 358.988 -44.16 358.117 C-52.946 353.276 -56.104 345.607 -59.41 336.617 C-59.761 335.706 -60.111 334.794 -60.473 333.855 C-62.326 328.916 -63.669 324.374 -64.16 319.117 C-65.439 319.055 -66.718 318.993 -68.035 318.93 C-78.697 317.68 -86.32 310.958 -94.16 304.117 C-93.24 323.993 -92.017 343.855 -89.66 363.617 C-89.542 364.613 -89.423 365.608 -89.301 366.633 C-88.586 372.378 -87.673 378.053 -86.575 383.737 C-85.833 387.99 -85.429 391.55 -87.281 395.52 C-89.581 398.699 -92.319 400.652 -95.535 402.805 C-96.792 403.674 -98.047 404.545 -99.301 405.418 C-99.94 405.861 -100.578 406.304 -101.236 406.76 C-104.311 408.929 -107.303 411.199 -110.285 413.492 C-111.319 414.284 -112.353 415.075 -113.418 415.891 C-116.142 417.993 -116.142 417.993 -118.152 420.281 C-122.624 424.37 -128.146 424.408 -133.93 424.348 C-134.651 424.347 -135.373 424.347 -136.116 424.346 C-137.63 424.343 -139.143 424.335 -140.657 424.323 C-142.983 424.305 -145.309 424.302 -147.635 424.303 C-149.108 424.298 -150.581 424.292 -152.055 424.285 C-152.753 424.284 -153.45 424.283 -154.169 424.282 C-159.044 424.233 -159.044 424.233 -160.16 423.117 C-160.769 417.335 -160.106 414.017 -156.926 409.18 C-153.5 405.177 -148.974 402.758 -144.473 400.117 C-136.906 395.587 -129.897 390.823 -123.16 385.117 C-122.567 384.63 -121.974 384.143 -121.364 383.641 C-119.644 382.122 -119.644 382.122 -118.16 379.117 C-118.591 371.206 -121.969 363.373 -124.598 355.992 C-124.993 354.864 -125.388 353.736 -125.795 352.574 C-127.849 346.729 -129.966 340.912 -132.16 335.117 C-135.95 324.923 -139.684 314.709 -143.41 304.492 C-143.739 303.593 -144.068 302.694 -144.407 301.767 C-158.783 262.283 -158.783 262.283 -153.09 247.301 C-151.63 244.944 -150.106 243.088 -148.16 241.117 C-147.557 240.486 -146.954 239.854 -146.332 239.203 C-137.711 230.968 -127.371 227.186 -115.598 226.805 C-99.756 227.184 -84.288 232.053 -70.16 239.117 C-70.635 235.512 -71.116 231.908 -71.598 228.305 C-71.732 227.281 -71.867 226.256 -72.006 225.201 C-72.138 224.218 -72.27 223.235 -72.406 222.223 C-72.527 221.317 -72.647 220.411 -72.771 219.477 C-73.12 216.975 -73.12 216.975 -74.16 214.117 C-74.264 212.698 -74.316 211.275 -74.334 209.852 C-74.347 208.993 -74.361 208.135 -74.375 207.25 C-74.39 205.858 -74.39 205.858 -74.406 204.438 C-74.439 202.456 -74.472 200.474 -74.506 198.492 C-74.553 195.381 -74.597 192.27 -74.637 189.159 C-74.827 173.871 -74.827 173.871 -76.708 158.725 C-77.913 151.773 -78.96 142.375 -75.473 135.992 C-74.71 135.043 -73.946 134.095 -73.16 133.117 C-72.5 132.148 -71.84 131.178 -71.16 130.18 C-67.495 125.985 -62.648 123.233 -57.983 120.278 C-56.055 119.05 -54.142 117.801 -52.23 116.547 C-43.877 111.079 -35.435 105.781 -26.873 100.645 C-26.154 100.212 -25.436 99.779 -24.695 99.332 C-24.06 98.952 -23.424 98.571 -22.77 98.179 C-20.994 97.085 -20.994 97.085 -19.16 95.117 C-18.625 92.387 -18.349 89.885 -18.16 87.117 C-18.048 85.9 -17.936 84.683 -17.82 83.43 C-17.563 79.577 -17.512 75.945 -18.16 72.117 C-20.131 70.288 -21.942 69.524 -24.395 68.461 C-26.16 67.117 -26.16 67.117 -26.551 64.523 C-26.455 62.426 -26.329 60.329 -26.176 58.234 C-26.159 54.9 -26.764 53.048 -28.16 50.055 C-31.36 42.9 -31.021 36.133 -28.848 28.68 C-24.446 17.776 -13.786 9.646 -5.16 2.117 C-3.16 0.117 -3.16 0.117 0 0 Z " fill="#344A62" transform="translate(190.16015625,819.8828125)"/>
<path d="M0 0 C4.29 0 8.58 0 13 0 C17.936 8.985 21.605 16.551 21.708 26.929 C21.98 42.362 26.217 57.897 29.688 72.875 C33.29 88.512 34.267 102.964 34 119 C25.913 122.369 18.19 122.518 9.562 122.438 C8.473 122.431 8.473 122.431 7.362 122.424 C-13.849 122.248 -33.089 119.084 -52.841 111.266 C-53.951 110.832 -55.06 110.397 -56.203 109.949 C-57.179 109.55 -58.155 109.152 -59.161 108.741 C-62.568 107.852 -64.64 107.963 -68 109 C-70.499 111.248 -70.95 112.586 -71.353 115.926 C-71.347 117.043 -71.342 118.161 -71.336 119.312 C-71.355 121.175 -71.355 121.175 -71.375 123.074 C-71.375 125.66 -71.367 128.246 -71.352 130.832 C-71.468 140.287 -72.824 149.867 -79.5 157.125 C-83.676 160.257 -86.801 161.013 -91.938 161.312 C-97.264 161.772 -99.403 163.052 -103 167 C-103.495 167.99 -103.99 168.98 -104.5 170 C-107.632 176.265 -113.845 179.173 -119.812 182.312 C-129.866 187.798 -138.09 194.18 -143.312 204.625 C-144.056 207.193 -144.152 209.34 -144 212 C-142.337 212.676 -140.669 213.339 -139 214 C-137.845 214.474 -136.69 214.949 -135.5 215.438 C-132.22 216.665 -128.989 217.47 -125.562 218.188 C-117.764 219.906 -110.244 222.41 -102.657 224.881 C-95.944 227.066 -89.213 229.145 -82.438 231.125 C-50.784 240.478 -50.784 240.478 -44.438 248.062 C-40.759 255.579 -41.053 263.787 -43.5 271.688 C-45.729 277.75 -48.607 283.451 -51.551 289.188 C-56.603 299.052 -61.352 309.07 -66.094 319.087 C-66.707 320.382 -67.322 321.677 -67.937 322.971 C-76.391 340.764 -83.636 357.243 -86 377 C-84.68 377.66 -83.36 378.32 -82 379 C-82.031 379.634 -82.063 380.268 -82.095 380.921 C-83.256 398.536 -83.256 398.536 -76 414 C-73.003 417.153 -69.927 420.218 -66.675 423.108 C-62.12 427.269 -62.12 427.269 -61.461 431.289 C-62 434 -62 434 -64 436 C-73.771 436.84 -86.164 437.516 -94.188 431.125 C-97.348 428.079 -99.432 424.749 -101.688 421 C-105.43 415.12 -109.119 412.918 -115.328 409.996 C-122.841 406.217 -130.06 399.94 -136 394 C-136.561 390.561 -136.696 388.075 -134.754 385.074 C-132.916 382.956 -130.991 380.976 -129 379 C-128.243 378.207 -127.487 377.414 -126.707 376.598 C-122.979 372.745 -119.599 369.757 -115 367 C-102.244 354.815 -102.14 331.12 -101.062 314.688 C-99.881 297.904 -95.352 286.903 -86 273 C-89.203 271.932 -91.445 271.892 -94.81 271.918 C-96.006 271.925 -97.202 271.931 -98.434 271.938 C-100.379 271.955 -100.379 271.955 -102.363 271.973 C-103.716 271.98 -105.068 271.986 -106.42 271.991 C-112.153 272.016 -117.886 272.051 -123.619 272.096 C-127.131 272.123 -130.642 272.14 -134.153 272.151 C-136.115 272.16 -138.076 272.18 -140.038 272.201 C-152.101 272.234 -163.531 270.582 -175.16 267.488 C-178.343 266.941 -179.985 266.821 -183 268 C-185.038 270.02 -186.781 271.962 -188.562 274.188 C-189.081 274.812 -189.6 275.436 -190.135 276.079 C-191.768 278.044 -193.385 280.02 -195 282 C-224.41 317.959 -270.41 335.813 -311.75 354.812 C-331.442 363.895 -350.06 373.799 -368 386 C-369.483 386.995 -370.966 387.99 -372.449 388.984 C-385.549 397.817 -385.549 397.817 -397.262 408.363 C-400.939 412.076 -404.939 415.005 -409.25 417.938 C-410.744 418.972 -412.237 420.007 -413.73 421.043 C-414.454 421.542 -415.178 422.042 -415.923 422.556 C-420.338 425.626 -424.666 428.817 -429 432 C-428.676 434.448 -428.676 434.448 -428 437 C-425.695 438.7 -425.695 438.7 -423 440 C-421.654 440.982 -420.316 441.977 -419 443 C-419.33 444.98 -419.66 446.96 -420 449 C-423.896 449.116 -427.791 449.187 -431.688 449.25 C-433.342 449.3 -433.342 449.3 -435.029 449.352 C-443.223 449.451 -443.223 449.451 -447.125 447.188 C-451.276 442.345 -453.404 438.993 -453.256 432.53 C-452.682 426.856 -451.169 421.34 -449.812 415.812 C-449.491 414.479 -449.171 413.145 -448.851 411.812 C-448.21 409.14 -447.564 406.471 -446.915 403.801 C-446.084 400.35 -445.28 396.895 -444.492 393.434 C-444.158 391.979 -444.158 391.979 -443.817 390.495 C-443.406 388.704 -443 386.913 -442.599 385.12 C-441.225 379.225 -441.225 379.225 -439 377 C-433.497 376.191 -428.53 376.434 -423.562 379 C-418.122 381.715 -412.969 381.908 -407 381 C-397.534 377.683 -391.748 370.038 -385.812 362.375 C-376.414 350.257 -366.472 339.972 -354 331 C-353.393 330.56 -352.785 330.121 -352.159 329.667 C-340.473 321.301 -328.558 315.359 -314.875 311 C-300.629 306.432 -289.791 300.59 -282.188 287.188 C-274.267 273.385 -261.491 263.884 -248 256 C-244.351 253.838 -244.351 253.838 -242.413 250.24 C-240.828 242.85 -240.082 235.404 -239.408 227.883 C-238.331 217.981 -234.368 209.811 -227 203 C-220.433 197.746 -213.148 194.729 -205.438 191.562 C-194.461 187.023 -185.34 182.077 -180 171 C-177.316 164.332 -176.124 157.579 -175.062 150.5 C-170.938 124.783 -163.389 104.194 -148 83 C-154.368 80.106 -160.805 77.439 -167.312 74.875 C-169.059 74.187 -170.805 73.496 -172.551 72.805 C-173.31 72.505 -174.07 72.206 -174.853 71.898 C-177 71 -177 71 -178.841 69.825 C-183.002 68.235 -186.971 69.624 -191.012 71.101 C-192.513 71.786 -192.513 71.786 -194.043 72.484 C-195.757 73.26 -195.757 73.26 -197.506 74.052 C-198.106 74.329 -198.705 74.605 -199.323 74.891 C-201.22 75.765 -203.123 76.626 -205.027 77.485 C-210.995 80.187 -216.93 82.945 -222.814 85.826 C-225.298 87.041 -227.788 88.241 -230.279 89.442 C-232.015 90.289 -233.737 91.162 -235.46 92.036 C-242.928 95.646 -248.745 96.768 -257 96 C-257.711 95.947 -258.423 95.893 -259.156 95.839 C-260.902 95.679 -262.639 95.436 -264.375 95.188 C-266.057 94.961 -266.057 94.961 -267.773 94.73 C-277.774 92.466 -283.623 85.402 -289 77.125 C-292 72.317 -292 72.317 -292 70 C-289.711 69.711 -289.711 69.711 -287 70 C-285.227 71.977 -285.227 71.977 -283.625 74.625 C-280.706 79.103 -277.72 83.293 -273 86 C-271.68 86 -270.36 86 -269 86 C-272.96 83.03 -276.92 80.06 -281 77 C-280.486 72.031 -279.766 67.71 -278 63 C-277.423 63.165 -276.845 63.33 -276.25 63.5 C-273.733 64.145 -273.733 64.145 -270 64 C-268.417 65.583 -268.653 67.38 -268.438 69.562 C-268.354 70.389 -268.27 71.215 -268.184 72.066 C-268.123 72.704 -268.062 73.343 -268 74 C-267.154 74.242 -266.309 74.485 -265.438 74.734 C-255.039 77.807 -255.039 77.807 -250.438 80.312 C-247.33 82.229 -247.33 82.229 -244.991 81.745 C-241.518 80.446 -238.728 78.051 -235.812 75.812 C-234.763 75.017 -234.763 75.017 -233.692 74.206 C-228.479 70.222 -223.416 66.073 -218.375 61.875 C-215.59 59.575 -212.797 57.285 -210 55 C-209.363 54.475 -208.725 53.949 -208.068 53.408 C-197.022 44.421 -197.022 44.421 -190.312 44.25 C-188.534 44.442 -186.761 44.691 -185 45 C-184.212 45.079 -183.425 45.157 -182.613 45.238 C-171.276 46.715 -160.087 51.426 -149.387 55.312 C-142.422 57.72 -136.063 58.403 -128.761 58.636 C-121.599 58.896 -114.952 60.223 -108 62 C-107.888 60.871 -107.888 60.871 -107.773 59.719 C-105.878 44.406 -100.424 27.475 -88.082 17.469 C-77.799 10.215 -66.236 9.792 -54 11 C-50.332 12.027 -47.917 13.589 -45 16 C-44.135 16.666 -43.27 17.333 -42.379 18.02 C-39.523 20.281 -36.756 22.618 -34 25 C-33.059 25.806 -32.118 26.611 -31.148 27.441 C-22.29 35.19 -22.29 35.19 -21.699 40.918 C-21.661 51.616 -23.014 58.385 -30.184 66.469 C-32.145 68.122 -33.493 68.603 -36 69 C-36.19 71.4 -36.328 73.784 -36.438 76.188 C-36.496 76.861 -36.555 77.535 -36.615 78.229 C-36.711 81.048 -36.646 83.293 -34.688 85.437 C-30.184 88.716 -26.474 89.738 -20.879 89.707 C-20.134 89.722 -19.389 89.737 -18.622 89.753 C-16.269 89.795 -13.916 89.805 -11.562 89.812 C-9.956 89.836 -8.35 89.861 -6.744 89.889 C-2.829 89.951 1.085 89.984 5 90 C4.983 89.187 4.965 88.375 4.947 87.538 C4.927 85.93 4.927 85.93 4.906 84.289 C4.889 83.229 4.871 82.169 4.854 81.077 C4.992 78.17 5.464 76.071 6.5 73.375 C9.061 65.849 8.393 57.835 8 50 C7.942 48.795 7.884 47.589 7.824 46.348 C7.3 40.834 7.3 40.834 4.402 36.301 C2.322 34.924 0.307 33.948 -2 33 C-3.625 32.292 -5.25 31.584 -6.875 30.875 C-7.985 30.438 -7.985 30.438 -9.117 29.992 C-11 29 -11 29 -13 26 C-13.035 23.276 -12.957 20.705 -12.75 18 C-12.71 17.276 -12.67 16.551 -12.629 15.805 C-12.376 12.105 -12.095 10.142 -10 7 C-8.68 7 -7.36 7 -6 7 C-5.67 5.35 -5.34 3.7 -5 2 C-3.35 2.33 -1.7 2.66 0 3 C0 2.01 0 1.02 0 0 Z " fill="#354B62" transform="translate(822,169)"/>
<path d="M0 0 C0.66 0 1.32 0 2 0 C3.375 1.398 3.375 1.398 5 3.375 C12.729 12.432 21.251 20.715 31.113 27.441 C35.215 30.422 36.437 32.577 37.312 37.625 C37.412 38.545 37.511 39.466 37.613 40.414 C38.371 45.481 41.091 48.926 44.668 52.457 C48.47 54.973 52.448 55.205 56.914 55.613 C59.933 55.992 62.244 56.745 65 58 C65.66 57.01 66.32 56.02 67 55 C69.99 55.59 71.896 56.437 74.277 58.328 C74.874 58.799 75.47 59.269 76.084 59.754 C77.001 60.494 77.001 60.494 77.938 61.25 C78.545 61.728 79.153 62.206 79.779 62.699 C86.429 67.993 91.529 73.824 96.5 80.688 C97.109 81.523 97.719 82.358 98.347 83.218 C100.236 85.809 102.118 88.404 104 91 C105.139 92.563 106.278 94.125 107.418 95.688 C129.05 125.411 149.708 156.1 168 188 C168.415 188.72 168.83 189.44 169.257 190.182 C175.396 200.876 180.921 211.764 186.063 222.97 C186.858 224.692 187.675 226.404 188.496 228.113 C192.017 235.518 194.599 243.176 197 251 C197.25 251.79 197.5 252.58 197.758 253.395 C199.074 258.244 199.228 263.122 199.312 268.125 C199.33 268.795 199.348 269.464 199.366 270.154 C199.356 276.426 197.728 280.888 193.75 285.75 C186.168 291.954 177.401 292.608 168 292 C156.775 290.657 147.72 286.428 138 281 C137.375 280.657 136.75 280.314 136.105 279.96 C125.304 273.983 115.636 266.686 106 259 C104.501 257.807 104.501 257.807 102.973 256.59 C100.291 254.42 97.64 252.22 95 250 C94.468 249.553 93.937 249.107 93.389 248.646 C86.311 242.684 79.369 236.599 72.614 230.272 C69.819 227.658 66.987 225.103 64.098 222.594 C60.078 219.094 56.186 215.473 52.312 211.812 C50.911 210.493 49.508 209.174 48.105 207.855 C47.07 206.882 47.07 206.882 46.013 205.888 C41.041 201.224 36.023 196.609 31 192 C30.163 191.223 29.327 190.445 28.465 189.645 C22.614 184.269 16.476 179.342 10.199 174.48 C9.659 174.053 9.119 173.625 8.563 173.184 C6.823 171.829 6.823 171.829 4.102 170.191 C2 168 2 168 1.512 164.109 C1.545 162.655 1.604 161.202 1.688 159.75 C1.71 159.005 1.733 158.26 1.756 157.492 C1.815 155.661 1.904 153.83 2 152 C2.831 151.939 3.663 151.879 4.52 151.816 C5.606 151.733 6.693 151.649 7.812 151.562 C8.891 151.481 9.97 151.4 11.082 151.316 C14.06 151.098 14.06 151.098 17 150 C16.965 149.355 16.929 148.709 16.893 148.045 C16.444 139.843 16.002 131.64 15.562 123.438 C15.492 122.13 15.422 120.822 15.35 119.475 C14.568 104.799 13.819 90.13 13.438 75.438 C13.102 62.907 12.313 50.467 11 38 C10.869 36.69 10.737 35.381 10.602 34.031 C9.787 27.703 8.622 25.5 4 21 C3.569 17.956 3.701 15.053 4 12 C2.68 11.34 1.36 10.68 0 10 C0 6.7 0 3.4 0 0 Z " fill="#FEFEFE" transform="translate(1126,305)"/>
<path d="M0 0 C5.756 -0.094 11.512 -0.164 17.268 -0.221 C19.487 -0.248 21.706 -0.286 23.924 -0.335 C26.874 -0.399 29.821 -0.427 32.771 -0.446 C33.603 -0.474 34.435 -0.501 35.291 -0.53 C38.283 -0.519 40.727 -0.51 43.055 1.518 C44.269 3.023 45.396 4.597 46.514 6.175 C47.504 6.505 48.494 6.835 49.514 7.175 C45.689 21.065 37.586 31.55 26.139 40.113 C16.426 47.383 8.973 55.653 1.84 65.421 C-1.334 69.74 -4.627 73.569 -8.545 77.242 C-11.788 80.471 -14.565 84.079 -17.408 87.66 C-21.535 92.655 -25.009 95.028 -31.049 97.363 C-38.774 100.519 -44.263 104.589 -50.486 110.175 C-54.337 112.742 -56.072 112.008 -60.486 111.175 C-59.736 104.425 -59.736 104.425 -57.486 102.175 C-55.228 95.835 -53.539 89.555 -54.986 82.863 C-55.441 80.419 -55.428 78.628 -55.299 76.175 C-55.276 69.188 -56.53 61.289 -61.475 56.081 C-66.122 52.807 -70.89 50.973 -76.486 50.175 C-77.863 49.941 -77.863 49.941 -79.268 49.703 C-87.867 48.561 -94.81 49.719 -101.881 54.945 C-107.659 60.223 -109.27 64.495 -109.623 72.136 C-109.705 77.245 -109.6 82.165 -108.486 87.175 C-109.146 87.175 -109.806 87.175 -110.486 87.175 C-109.731 89.993 -108.958 92.803 -108.174 95.613 C-107.961 96.415 -107.747 97.218 -107.527 98.044 C-107.312 98.808 -107.096 99.572 -106.873 100.359 C-106.679 101.066 -106.486 101.773 -106.286 102.501 C-106.022 103.054 -105.758 103.606 -105.486 104.175 C-104.001 104.67 -104.001 104.67 -102.486 105.175 C-102.156 107.155 -101.826 109.135 -101.486 111.175 C-108.131 112.189 -111.687 110.847 -117.049 106.925 C-118.173 106.095 -119.295 105.263 -120.416 104.429 C-124.688 101.293 -128.966 99.071 -133.947 97.3 C-143.853 93.731 -148.515 87.184 -154.959 79.132 C-157.683 75.945 -160.591 73.075 -163.611 70.175 C-168.228 65.72 -171.621 61.183 -174.916 55.644 C-179.99 47.667 -188.111 41.69 -196.549 37.675 C-204.56 33.749 -208.981 28.837 -213.986 21.55 C-214.445 20.892 -214.903 20.234 -215.375 19.557 C-218.549 14.749 -218.549 14.749 -218.271 12.19 C-216.682 8.11 -214.176 5.497 -210.486 3.175 C-205.972 2.123 -201.471 2.249 -196.861 2.3 C-195.343 2.29 -193.824 2.276 -192.306 2.259 C-188.757 2.224 -185.208 2.209 -181.659 2.204 C-174.827 2.184 -167.997 2.068 -161.166 1.949 C-142.94 1.637 -124.714 1.399 -106.486 1.175 C-105.096 1.158 -105.096 1.158 -103.677 1.141 C-78.408 0.832 -53.139 0.557 -27.87 0.335 C-18.579 0.252 -9.29 0.152 0 0 Z " fill="#FDFDFD" transform="translate(696.4864082336426,774.8247938156128)"/>
<path d="M0 0 C3.2 2.667 4.689 6.1 6.375 9.812 C6.68 10.48 6.984 11.148 7.298 11.837 C13.961 26.685 18.351 41.633 18 58 C17.267 58.148 16.533 58.296 15.777 58.449 C11.511 60.832 10.426 64.429 8.562 68.812 C8.176 69.696 7.79 70.579 7.392 71.49 C3.346 81.046 0.417 90.917 -2 101 C-2.186 101.761 -2.373 102.523 -2.565 103.307 C-4.25 110.84 -4.638 118.436 -5.062 126.125 C-5.145 127.535 -5.228 128.945 -5.312 130.355 C-6.023 142.564 -6.567 154.779 -7 167 C-12.668 165.353 -17.705 162.737 -22.938 160.062 C-45.342 148.752 -68.128 138.322 -91 128 C-91 127.34 -91 126.68 -91 126 C-84.73 123.36 -78.46 120.72 -72 118 C-72 119.32 -72 120.64 -72 122 C-70.232 122.249 -68.46 122.474 -66.688 122.688 C-65.701 122.815 -64.715 122.943 -63.699 123.074 C-60.979 123.281 -60.979 123.281 -59.336 121.586 C-58.895 121.063 -58.454 120.539 -58 120 C-56.008 119.309 -54.008 118.641 -52 118 C-49.66 116.076 -49.66 116.076 -49.625 112.688 C-48.913 108.485 -47.621 107.254 -45 104 C-43.755 101.374 -43.755 101.374 -42.75 98.562 C-38.037 86.795 -31.124 75.087 -23.477 64.988 C-15.442 54.169 -12.085 40.056 -8.852 27.167 C-7.343 21.171 -5.613 15.27 -3.75 9.375 C-3.491 8.551 -3.233 7.726 -2.967 6.877 C-1.13 1.13 -1.13 1.13 0 0 Z " fill="#FCFCFC" transform="translate(1026,241)"/>
<path d="M0 0 C6.467 2.985 10.375 6.168 14.129 12.145 C16.456 15.697 18.996 19.056 21.562 22.438 C26 28.31 30.377 34.221 34.688 40.188 C35.185 40.874 35.683 41.561 36.196 42.269 C44.263 53.462 51.987 64.887 59.639 76.366 C61.062 78.499 62.489 80.631 63.916 82.762 C69.465 91.068 74.829 99.451 80 108 C80.995 109.624 81.989 111.247 82.984 112.871 C97.853 137.333 113.419 163.189 121 191 C121.362 192.249 121.362 192.249 121.73 193.523 C123.052 198.864 123.225 204.21 123.312 209.688 C123.33 210.401 123.348 211.114 123.366 211.849 C123.357 218.09 121.873 222.686 117.875 227.625 C108.679 235.221 100.713 236.647 89 236 C58.324 232.693 30.992 207.986 8.693 188.471 C7.002 187.002 5.295 185.553 3.582 184.109 C-4.927 176.929 -13.057 169.397 -21.144 161.747 C-23.803 159.244 -26.491 156.774 -29.188 154.312 C-33.303 150.554 -37.407 146.783 -41.5 143 C-42.591 141.993 -43.682 140.987 -44.773 139.98 C-46.888 138.03 -48.996 136.074 -51.102 134.113 C-57.538 128.141 -64.134 122.474 -71 117 C-69.297 116.281 -69.297 116.281 -67 116 C-64.766 117.344 -64.766 117.344 -62.25 119.5 C-60.809 120.734 -60.809 120.734 -59.34 121.992 C-54.093 126.672 -48.988 131.506 -43.895 136.352 C-41.321 138.788 -38.704 141.154 -36.027 143.477 C-31.826 147.122 -27.784 150.921 -23.75 154.75 C-22.253 156.163 -20.756 157.576 -19.258 158.988 C-18.532 159.672 -17.807 160.356 -17.06 161.061 C-9.803 167.892 -2.464 174.523 5.309 180.77 C8.01 183.008 10.565 185.352 13.125 187.75 C19.698 193.788 26.768 199.132 33.925 204.456 C35.234 205.43 36.539 206.408 37.841 207.392 C55.83 220.988 76.614 233.826 100 232 C105.49 230.885 109.542 229.379 114 226 C114.66 226 115.32 226 116 226 C122.741 210.272 118.348 193.77 112.688 178.438 C89 120.037 50.025 61.696 9.754 13.301 C8 11 8 11 8 9 C7.257 8.752 6.515 8.505 5.75 8.25 C2.799 6.909 1.152 5.391 -1 3 C-0.67 2.01 -0.34 1.02 0 0 Z " fill="#44596D" transform="translate(1205,364)"/>
<path d="M0 0 C0.66 0.33 1.32 0.66 2 1 C3.563 5.78 4.031 9.921 4.125 14.938 C4.574 22.613 7.727 28.541 11.188 35.25 C12.664 38.145 13.593 40.743 14 44 C12.374 44.044 12.374 44.044 10.715 44.09 C6.794 44.608 6.794 44.608 5.066 47.879 C4.57 49.094 4.074 50.31 3.562 51.562 C1.142 57.036 -1.404 60.877 -5.836 64.898 C-16.277 75.038 -25.4 89.165 -32 102 C-33.32 101.34 -34.64 100.68 -36 100 C-35.01 100 -34.02 100 -33 100 C-32.807 99.42 -32.613 98.84 -32.414 98.242 C-32.154 97.461 -31.893 96.68 -31.625 95.875 C-31.217 94.641 -31.217 94.641 -30.801 93.383 C-30.166 91.495 -29.496 89.62 -28.812 87.75 C-27.741 84.125 -27.549 81.354 -28.75 77.75 C-29.115 73.733 -27.407 71.863 -25.188 68.562 C-21.903 63.639 -19.606 59.362 -18.551 53.508 C-17.859 50.359 -16.616 47.762 -15.188 44.875 C-14.686 43.841 -14.185 42.807 -13.668 41.742 C-12.006 39.01 -10.735 37.609 -8 36 C-7.34 36 -6.68 36 -6 36 C-5.494 33.772 -4.995 31.543 -4.5 29.312 C-4.222 28.071 -3.943 26.83 -3.656 25.551 C-2.852 21.198 -2.599 18.202 -4 14 C-3.359 12.654 -2.689 11.322 -2 10 C-1.588 7.677 -1.588 7.677 -1.438 5.312 C-1.1 1.1 -1.1 1.1 0 0 Z " fill="#F6F7F8" transform="translate(1124,946)"/>
<path d="M0 0 C0.33 0 0.66 0 1 0 C0.851 7.684 -0.236 14.427 -2.438 21.75 C-5.034 30.463 -6.301 38.949 -7 48 C-7.084 48.837 -7.168 49.673 -7.254 50.535 C-7.528 55.27 -6.407 59.047 -5 63.562 C-0.408 79.013 -0.122 104.393 -7.053 119.259 C-7.366 119.833 -7.678 120.408 -8 121 C-8.66 121 -9.32 121 -10 121 C-17.921 98.934 -13.834 74.519 -10.553 51.854 C-10.072 48.502 -9.605 45.148 -9.146 41.793 C-8.749 38.905 -8.341 36.018 -7.933 33.132 C-7.727 31.668 -7.526 30.203 -7.328 28.738 C-3.976 3.976 -3.976 3.976 0 0 Z " fill="#F4F5F6" transform="translate(1088,481)"/>
<path d="M0 0 C6.098 0.278 8.771 3.034 12.875 7.125 C14.12 8.325 15.366 9.524 16.613 10.723 C17.203 11.296 17.793 11.87 18.401 12.461 C20.236 14.227 22.128 15.908 24.062 17.562 C31.79 24.242 39.191 31.305 46.653 38.278 C49.173 40.633 51.695 42.986 54.217 45.338 C55.363 46.406 56.509 47.475 57.654 48.545 C63.698 54.183 69.864 59.59 76.309 64.77 C79.01 67.008 81.565 69.352 84.125 71.75 C90.698 77.788 97.768 83.132 104.925 88.456 C106.234 89.43 107.539 90.408 108.841 91.392 C119.53 99.471 131.003 106.05 143 112 C143 112.66 143 113.32 143 114 C138.193 113.453 134.392 111.982 130.188 109.688 C129.544 109.34 128.901 108.992 128.239 108.634 C120.049 104.078 112.516 98.576 105 93 C104.409 92.564 103.819 92.128 103.21 91.679 C95.082 85.647 87.391 79.158 79.757 72.519 C78.037 71.032 76.305 69.562 74.566 68.098 C66.064 60.92 57.939 53.393 49.856 45.747 C47.197 43.244 44.509 40.774 41.812 38.312 C37.697 34.554 33.593 30.783 29.5 27 C28.409 25.993 27.318 24.987 26.227 23.98 C24.112 22.03 22.004 20.074 19.898 18.113 C14.096 12.73 8.184 7.601 1.984 2.68 C1.33 2.125 0.675 1.571 0 1 C0 0.67 0 0.34 0 0 Z " fill="#41556B" transform="translate(1134,480)"/>
<path d="M0 0 C8.414 10.653 13.607 25.096 18.062 37.812 C18.337 38.592 18.611 39.372 18.894 40.176 C21.713 48.566 23.354 56.826 23.312 65.688 C23.337 66.748 23.337 66.748 23.361 67.83 C23.367 74.078 21.876 78.683 17.875 83.625 C8.721 91.187 0.68 92.722 -11 92 C-17.558 90.959 -23.883 89.625 -30 87 C-29.01 86.505 -29.01 86.505 -28 86 C-28 85.34 -28 84.68 -28 84 C-27.359 84.205 -26.719 84.41 -26.059 84.621 C-14.1 88.346 -1.841 90.129 10 85 C11.338 84.006 12.672 83.007 14 82 C14.66 82 15.32 82 16 82 C22.741 66.272 18.348 49.77 12.688 34.438 C9.23 25.868 5.548 17.187 0.77 9.27 C-1.254 5.53 -1.172 4.004 0 0 Z " fill="#44586D" transform="translate(1305,508)"/>
<path d="M0 0 C8.3 2.459 15.886 6.185 23.625 10 C25 10.673 26.376 11.345 27.752 12.017 C29.834 13.033 31.916 14.05 33.997 15.068 C41.204 18.596 48.446 22.05 55.692 25.498 C60.823 27.944 65.924 30.441 71 33 C70.01 33.495 70.01 33.495 69 34 C69 34.66 69 35.32 69 36 C62.952 34.284 57.57 31.352 52 28.5 C42.97 23.924 33.866 19.594 24.627 15.457 C18.252 12.595 11.991 9.57 5.777 6.375 C3.223 5.11 0.662 4.016 -2 3 C-1.34 2.01 -0.68 1.02 0 0 Z M-4 1 C-2 2 -2 2 -2 2 Z " fill="#40556A" transform="translate(944,373)"/>
<path d="M0 0 C6.467 2.985 10.375 6.168 14.129 12.145 C16.456 15.697 18.996 19.056 21.562 22.438 C26.063 28.393 30.501 34.389 34.875 40.438 C35.659 41.518 35.659 41.518 36.459 42.621 C40.098 47.666 43.581 52.803 47 58 C46.01 58.66 45.02 59.32 44 60 C42.041 57.292 40.083 54.584 38.125 51.875 C37.534 51.057 36.942 50.239 36.333 49.396 C32.786 44.486 29.259 39.562 25.75 34.625 C18.011 23.752 18.011 23.752 9.742 13.285 C8 11 8 11 8 9 C7.257 8.752 6.515 8.505 5.75 8.25 C2.799 6.909 1.152 5.391 -1 3 C-0.67 2.01 -0.34 1.02 0 0 Z " fill="#41556B" transform="translate(1205,364)"/>
<path d="M0 0 C4.794 0.47 7.038 2.443 10.562 5.625 C27.447 20.401 45.811 33.159 66 43 C66 43.66 66 44.32 66 45 C61.193 44.453 57.392 42.982 53.188 40.688 C52.544 40.34 51.901 39.992 51.239 39.634 C43.049 35.078 35.516 29.576 28 24 C27.409 23.564 26.819 23.128 26.21 22.679 C19.699 17.846 13.425 12.753 7.25 7.5 C6.641 6.983 6.031 6.466 5.404 5.934 C1.123 2.246 1.123 2.246 0 0 Z " fill="#3F5469" transform="translate(1211,549)"/>
<path d="M0 0 C8.497 10.758 13.696 25.35 18.188 38.188 C18.479 39.018 18.77 39.848 19.069 40.703 C20.326 44.443 21 46.975 21 51 C19.515 51.495 19.515 51.495 18 52 C17.697 50.996 17.394 49.992 17.082 48.957 C13.121 35.955 8.78 23.671 1.858 11.91 C-0.135 8.374 -1.045 6.653 -0.758 2.496 C-0.508 1.672 -0.258 0.849 0 0 Z " fill="#495D71" transform="translate(1305,508)"/>
<path d="M0 0 C3.712 1.453 5.003 3.161 6.91 6.613 C7.425 7.532 7.94 8.45 8.471 9.396 C8.996 10.359 9.521 11.321 10.062 12.312 C11.116 14.205 12.169 16.096 13.223 17.988 C13.684 18.829 14.146 19.67 14.621 20.536 C15.588 22.264 16.607 23.963 17.662 25.637 C19.186 28.328 19.261 29.958 19 33 C18.34 33 17.68 33 17 33 C16.663 32.375 16.325 31.751 15.978 31.107 C14.425 28.237 12.869 25.368 11.312 22.5 C10.782 21.518 10.252 20.535 9.705 19.523 C6.936 14.428 4.115 9.449 0.872 4.639 C0 3 0 3 0 0 Z " fill="#43586D" transform="translate(1286,478)"/>
<path d="M0 0 C6.635 3.062 10.562 6.395 14.41 12.539 C17.008 16.561 20.014 20.262 23 24 C22.34 25.32 21.68 26.64 21 28 C20.397 27.192 19.793 26.384 19.172 25.551 C18.365 24.471 17.557 23.392 16.75 22.312 C15.961 21.257 15.172 20.201 14.359 19.113 C12.849 17.12 11.3 15.155 9.703 13.23 C8 11 8 11 8 9 C7.257 8.752 6.515 8.505 5.75 8.25 C2.799 6.909 1.152 5.391 -1 3 C-0.67 2.01 -0.34 1.02 0 0 Z " fill="#43586D" transform="translate(1205,364)"/>
<path d="M0 0 C0.33 0 0.66 0 1 0 C0.851 7.683 -0.234 14.428 -2.438 21.75 C-5.049 30.438 -6.235 38.978 -7 48 C-7.33 48 -7.66 48 -8 48 C-9.356 40.818 -8.486 34.484 -7.312 27.312 C-7.13 26.16 -6.947 25.008 -6.759 23.821 C-3.378 3.378 -3.378 3.378 0 0 Z " fill="#DFE3E6" transform="translate(1088,481)"/>
<path d="M0 0 C6.098 0.278 8.771 3.034 12.875 7.125 C14.103 8.309 15.333 9.493 16.562 10.676 C17.15 11.248 17.738 11.82 18.344 12.409 C21.453 15.396 24.722 18.201 28 21 C27.67 22.32 27.34 23.64 27 25 C26.573 24.593 26.146 24.185 25.706 23.766 C17.965 16.401 10.253 9.142 1.844 2.539 C1.235 2.031 0.627 1.523 0 1 C0 0.67 0 0.34 0 0 Z " fill="#40556A" transform="translate(1134,480)"/>
<path d="M0 0 C9.481 6.637 17.888 14.768 26 23 C23.096 23.252 21.504 23.338 19.043 21.687 C18.431 21.084 17.818 20.481 17.188 19.859 C16.504 19.201 15.821 18.542 15.117 17.863 C14.419 17.166 13.72 16.469 13 15.75 C11.606 14.389 10.21 13.03 8.812 11.672 C8.159 11.028 7.505 10.384 6.832 9.721 C4.882 7.823 4.882 7.823 2 5.766 C1.34 5.183 0.68 4.6 0 4 C0 2.68 0 1.36 0 0 Z " fill="#40556A" transform="translate(1188,526)"/>
<path d="M0 0 C3.087 1.43 6.169 2.87 9.25 4.312 C10.123 4.717 10.995 5.121 11.895 5.537 C12.739 5.933 13.583 6.33 14.453 6.738 C15.228 7.1 16.003 7.461 16.802 7.833 C19.061 9.032 20.998 10.414 23 12 C22.34 12 21.68 12 21 12 C21 12.66 21 13.32 21 14 C15.544 12.393 10.67 9.95 5.625 7.375 C4.794 6.955 3.962 6.535 3.105 6.102 C1.068 5.071 -0.967 4.037 -3 3 C-2.01 2.01 -1.02 1.02 0 0 Z " fill="#44586D" transform="translate(992,395)"/>
<path d="M0 0 C0.804 0.29 0.804 0.29 1.625 0.586 C7.876 2.663 13.929 3.623 20.465 4.177 C24.494 4.576 27.024 5.191 30 8 C18.915 8.497 8.282 7.412 -2 3 C-1.34 2.67 -0.68 2.34 0 2 C0 1.34 0 0.68 0 0 Z " fill="#516376" transform="translate(1277,592)"/>
<path d="M0 0 C6.719 1.996 12.807 4.729 19 8 C19 9.32 19 10.64 19 12 C14.157 10.506 9.686 8.55 5.125 6.375 C4.092 5.888 4.092 5.888 3.039 5.391 C1.358 4.597 -0.321 3.799 -2 3 C-1.34 2.01 -0.68 1.02 0 0 Z M-4 1 C-2 2 -2 2 -2 2 Z M20 9 C22 10 22 10 22 10 Z " fill="#45596E" transform="translate(944,373)"/>
<path d="M0 0 C2.704 2.704 3.468 5.822 4.625 9.375 C4.854 10.048 5.084 10.721 5.32 11.414 C6.446 14.819 7 17.374 7 21 C6.01 21.33 5.02 21.66 4 22 C3.129 19.463 2.278 16.922 1.438 14.375 C1.191 13.662 0.944 12.949 0.689 12.215 C-0.763 7.756 -1.23 4.669 0 0 Z " fill="#465A6F" transform="translate(1319,538)"/>
<path d="M0 0 C0.99 0.33 1.98 0.66 3 1 C2.235 1.725 2.235 1.725 1.455 2.465 C-0.855 4.672 -3.146 6.898 -5.438 9.125 C-6.24 9.886 -7.042 10.646 -7.869 11.43 C-9.015 12.551 -9.015 12.551 -10.184 13.695 C-10.891 14.376 -11.598 15.057 -12.326 15.758 C-14.366 18.49 -14.679 20.644 -15 24 C-15.33 24 -15.66 24 -16 24 C-16.525 20.403 -16.762 18.184 -14.758 15.07 C-12.915 12.956 -10.994 10.973 -9 9 C-8.185 8.172 -7.371 7.345 -6.531 6.492 C-4.37 4.311 -2.193 2.149 0 0 Z " fill="#4E6175" transform="translate(702,539)"/>
<path d="M0 0 C1.77 0.16 1.77 0.16 4 1 C5.887 3.434 5.887 3.434 7.688 6.438 C8.59 7.921 8.59 7.921 9.512 9.434 C10.381 10.933 11.225 12.45 12 14 C11.01 15.485 11.01 15.485 10 17 C8.325 14.735 6.66 12.464 5 10.188 C4.523 9.545 4.046 8.902 3.555 8.24 C3.104 7.618 2.652 6.996 2.188 6.355 C1.769 5.785 1.35 5.214 0.918 4.626 C0 3 0 3 0 0 Z " fill="#43576C" transform="translate(1250,423)"/>
<path d="M0 0 C1.734 0.09 1.734 0.09 4 1 C5.585 3.178 6.927 5.238 8.25 7.562 C8.614 8.178 8.977 8.794 9.352 9.428 C10.246 10.945 11.124 12.472 12 14 C11.01 14.66 10.02 15.32 9 16 C7.494 13.712 5.995 11.42 4.5 9.125 C4.071 8.474 3.641 7.823 3.199 7.152 C0 2.227 0 2.227 0 0 Z " fill="#41556B" transform="translate(1276,463)"/>
<path d="M0 0 C9.798 7.075 9.798 7.075 13 11 C12.621 13.148 12.621 13.148 12 15 C10.295 13.295 8.591 11.589 6.891 9.879 C5.75 8.746 4.597 7.624 3.422 6.527 C2.228 5.406 1.107 4.208 0 3 C0 2.01 0 1.02 0 0 Z " fill="#41566B" transform="translate(1162,502)"/>
<path d="M0 0 C0.99 0.33 1.98 0.66 3 1 C3.956 4.998 4.104 8.708 4.062 12.812 C4.053 13.974 4.044 15.135 4.035 16.332 C4.024 17.212 4.012 18.093 4 19 C3.34 19 2.68 19 2 19 C1.661 16.959 1.329 14.917 1 12.875 C0.814 11.738 0.629 10.601 0.438 9.43 C0.03 6.239 -0.078 3.212 0 0 Z " fill="#3D5268" transform="translate(1324,559)"/>
<path d="M0 0 C4.737 0.485 7.225 2.465 10.812 5.5 C11.788 6.315 12.764 7.129 13.77 7.969 C14.506 8.639 15.242 9.309 16 10 C16 10.33 16 10.66 16 11 C12.309 11.533 11.16 11.119 8.105 8.848 C7.121 7.932 6.148 7.003 5.188 6.062 C4.685 5.594 4.183 5.125 3.666 4.643 C2.414 3.459 1.203 2.233 0 1 C0 0.67 0 0.34 0 0 Z " fill="#3F5369" transform="translate(1211,549)"/>
<path d="M0 0 C2.955 3.546 5.459 7.638 7 12 C6.67 12.99 6.34 13.98 6 15 C5.34 15 4.68 15 4 15 C-1.059 7.123 -1.059 7.123 -0.812 2.438 C-0.544 1.633 -0.276 0.829 0 0 Z " fill="#4B5F73" transform="translate(1305,508)"/>
<path d="M0 0 C-4.786 4.945 -4.786 4.945 -8.164 5.098 C-9.382 5.08 -9.382 5.08 -10.625 5.062 C-11.851 5.049 -11.851 5.049 -13.102 5.035 C-14.041 5.018 -14.041 5.018 -15 5 C-12.605 2.186 -10.461 1.267 -6.938 0.25 C-5.621 -0.144 -5.621 -0.144 -4.277 -0.547 C-2 -1 -2 -1 0 0 Z " fill="#465A6E" transform="translate(1317,594)"/>
<path d="M0 0 C4.972 1.492 9.418 3.605 14 6 C14 6.66 14 7.32 14 8 C8.147 7.55 3.918 4.962 -1 2 C-0.67 1.34 -0.34 0.68 0 0 Z " fill="#3A4F65" transform="translate(1263,586)"/>
<path d="M0 0 C4.95 1.98 4.95 1.98 10 4 C10 4.99 10 5.98 10 7 C5.435 6.457 2.027 5.205 -2 3 C-1.34 2.01 -0.68 1.02 0 0 Z " fill="#41556B" transform="translate(981,390)"/>
<path d="M0 0 C3.912 1.156 6.875 2.355 10 5 C9.34 5 8.68 5 8 5 C8 5.66 8 6.32 8 7 C4.088 5.844 1.125 4.645 -2 2 C-1.34 1.34 -0.68 0.68 0 0 Z " fill="#4D6074" transform="translate(1005,402)"/>
<path d="M0 0 C3.288 3.11 5.837 6.016 8 10 C6.68 10 5.36 10 4 10 C1.033 6.373 0 4.755 0 0 Z " fill="#3E5369" transform="translate(1227,389)"/>
<path d="M0 0 C2.952 2.952 3.087 5.955 4 10 C3.01 10.33 2.02 10.66 1 11 C-1.037 6.926 -1.026 4.411 0 0 Z " fill="#4B5F73" transform="translate(1319,538)"/>
<path d="M0 0 C1.316 0.953 2.628 1.913 3.938 2.875 C4.668 3.409 5.399 3.942 6.152 4.492 C8 6 8 6 9 8 C3.566 7.396 3.566 7.396 1.125 5.688 C0 4 0 4 0 0 Z " fill="#43576C" transform="translate(1188,526)"/>
<path d="M0 0 C0.949 0.351 1.898 0.701 2.875 1.062 C2.875 2.382 2.875 3.702 2.875 5.062 C-2.875 3.188 -2.875 3.188 -5.125 2.062 C-5.125 1.402 -5.125 0.743 -5.125 0.062 C-3.125 -0.938 -3.125 -0.938 0 0 Z M3.875 2.062 C5.875 3.062 5.875 3.062 5.875 3.062 Z " fill="#4D6073" transform="translate(960.125,379.9375)"/>
<path d="M0 0 C4.875 4.625 4.875 4.625 6 8 C4.68 8 3.36 8 2 8 C-0.152 4.772 -0.201 3.716 0 0 Z " fill="#40556A" transform="translate(1261,437)"/>
<path d="M0 0 C3.465 1.485 3.465 1.485 7 3 C5.68 3.99 4.36 4.98 3 6 C1.02 5.01 -0.96 4.02 -3 3 C-2.01 2.01 -1.02 1.02 0 0 Z " fill="#45596E" transform="translate(992,395)"/>
<path d="M0 0 C1.32 0.33 2.64 0.66 4 1 C3.67 1.99 3.34 2.98 3 4 C4.32 4.66 5.64 5.32 7 6 C4.03 6 1.06 6 -2 6 C-1.34 5.34 -0.68 4.68 0 4 C0 2.68 0 1.36 0 0 Z " fill="#41556A" transform="translate(676,1332)"/>
<path d="M0 0 C1.938 0.812 1.938 0.812 4 2 C4.33 2.99 4.66 3.98 5 5 C2.69 4.34 0.38 3.68 -2 3 C-1.34 2.01 -0.68 1.02 0 0 Z M-4 1 C-2 2 -2 2 -2 2 Z " fill="#42566B" transform="translate(944,373)"/>
<path d="M0 0 C2.915 1.074 4.778 1.778 7 4 C6.01 4.66 5.02 5.32 4 6 C2.35 5.01 0.7 4.02 -1 3 C-0.67 2.01 -0.34 1.02 0 0 Z " fill="#475B6F" transform="translate(1257,582)"/>
<path d="M0 0 C0.33 0 0.66 0 1 0 C1 2.97 1 5.94 1 9 C1.66 9 2.32 9 3 9 C2.688 10.938 2.688 10.938 2 13 C1.01 13.33 0.02 13.66 -1 14 C-0.67 9.38 -0.34 4.76 0 0 Z " fill="#657586" transform="translate(1325,569)"/>
<path d="M0 0 C0.99 0 1.98 0 3 0 C3.33 2.31 3.66 4.62 4 7 C3.01 7.495 3.01 7.495 2 8 C0.743 5.094 0 3.204 0 0 Z " fill="#43576C" transform="translate(1315,533)"/>
<path d="M0 0 C1.938 0.688 1.938 0.688 4 2 C4.75 4.625 4.75 4.625 5 7 C2.532 5.848 0.952 4.952 -1 3 C-0.67 2.01 -0.34 1.02 0 0 Z " fill="#41566B" transform="translate(1205,364)"/>
<path d="M0 0 C2.97 0.495 2.97 0.495 6 1 C5.67 1.66 5.34 2.32 5 3 C3.35 3 1.7 3 0 3 C0 2.01 0 1.02 0 0 Z " fill="#3D5267" transform="translate(964,383)"/>
<path d="M0 0 C0.66 0 1.32 0 2 0 C2 2.31 2 4.62 2 7 C1.01 7 0.02 7 -1 7 C-1.043 5 -1.041 3 -1 1 C-0.67 0.67 -0.34 0.34 0 0 Z " fill="#31485F" transform="translate(544,233)"/>
<path d="M0 0 C4.875 1.75 4.875 1.75 6 4 C3.125 4.125 3.125 4.125 0 4 C-0.66 3.34 -1.32 2.68 -2 2 C-1.34 2 -0.68 2 0 2 C0 1.34 0 0.68 0 0 Z " fill="#4E6275" transform="translate(1277,592)"/>
<path d="M0 0 C1.98 0.99 3.96 1.98 6 3 C5.67 3.99 5.34 4.98 5 6 C2.5 4.688 2.5 4.688 0 3 C0 2.01 0 1.02 0 0 Z " fill="#3D5268" transform="translate(1251,578)"/>
<path d="M0 0 C2.019 1.304 4.019 2.638 6 4 C6 4.33 6 4.66 6 5 C4.35 5 2.7 5 1 5 C0.67 3.35 0.34 1.7 0 0 Z " fill="#475B6F" transform="translate(1208,544)"/>
<path d="M0 0 C1.467 3.815 0.433 6.29 -1 10 C-1.33 10 -1.66 10 -2 10 C-2.25 3.375 -2.25 3.375 0 0 Z " fill="#F6F7F8" transform="translate(1084,500)"/>
<path d="M0 0 C4.75 0.75 4.75 0.75 7 3 C6.01 3.66 5.02 4.32 4 5 C2.68 3.35 1.36 1.7 0 0 Z " fill="#43586D" transform="translate(1224,560)"/>
<path d="M0 0 C2.475 0.495 2.475 0.495 5 1 C5.33 2.65 5.66 4.3 6 6 C3.979 4.358 1.98 2.691 0 1 C0 0.67 0 0.34 0 0 Z " fill="#3E5268" transform="translate(1194,534)"/>
<path d="M0 0 C2.97 0.495 2.97 0.495 6 1 C5.01 1.495 5.01 1.495 4 2 C4 2.66 4 3.32 4 4 C2.68 3.67 1.36 3.34 0 3 C0 2.01 0 1.02 0 0 Z " fill="#495D71" transform="translate(1009,405)"/>
<path d="M0 0 C2.97 0.495 2.97 0.495 6 1 C5.67 1.66 5.34 2.32 5 3 C3.35 2.67 1.7 2.34 0 2 C0 1.34 0 0.68 0 0 Z " fill="#344A61" transform="translate(938,371)"/>
<path d="M0 0 C0.66 0.33 1.32 0.66 2 1 C-0.97 3.475 -0.97 3.475 -4 6 C-4 5.01 -4 4.02 -4 3 C-2 1.312 -2 1.312 0 0 Z " fill="#495C70" transform="translate(953,338)"/>
<path d="M0 0 C1.98 0.99 1.98 0.99 4 2 C3.67 3.32 3.34 4.64 3 6 C1.5 4.688 1.5 4.688 0 3 C0 2.01 0 1.02 0 0 Z " fill="#40546A" transform="translate(1237,568)"/>
<path d="M0 0 C0.66 0.33 1.32 0.66 2 1 C0.68 2.32 -0.64 3.64 -2 5 C-2.33 3.68 -2.66 2.36 -3 1 C-2.01 0.67 -1.02 0.34 0 0 Z " fill="#465A6F" transform="translate(1315,593)"/>
<path d="M0 0 C0.99 0 1.98 0 3 0 C3 1.32 3 2.64 3 4 C2.01 4.33 1.02 4.66 0 5 C0 3.35 0 1.7 0 0 Z " fill="#506376" transform="translate(1323,555)"/>
<path d="M0 0 C2.475 0.495 2.475 0.495 5 1 C4.67 2.32 4.34 3.64 4 5 C2.68 3.35 1.36 1.7 0 0 Z " fill="#3C5167" transform="translate(1211,549)"/>
<path d="M0 0 C1.98 0 3.96 0 6 0 C5.402 0.289 4.804 0.577 4.188 0.875 C1.807 2.047 1.807 2.047 -1 4 C-0.67 2.68 -0.34 1.36 0 0 Z " fill="#506275" transform="translate(285,770)"/>
<path d="M0 0 C1.65 0 3.3 0 5 0 C5 0.99 5 1.98 5 3 C3.35 2.67 1.7 2.34 0 2 C0 1.34 0 0.68 0 0 Z " fill="#43576C" transform="translate(1285,596)"/>
<path d="M0 0 C1.98 0.495 1.98 0.495 4 1 C3.67 1.99 3.34 2.98 3 4 C1.68 3.34 0.36 2.68 -1 2 C-0.67 1.34 -0.34 0.68 0 0 Z " fill="#3F5469" transform="translate(1263,586)"/>
<path d="M0 0 C2 2 2 2 2 5 C1.01 5.33 0.02 5.66 -1 6 C-0.67 4.02 -0.34 2.04 0 0 Z " fill="#536679" transform="translate(1319,538)"/>
<path d="M0 0 C1.32 0.33 2.64 0.66 4 1 C4 1.66 4 2.32 4 3 C3.01 3.33 2.02 3.66 1 4 C0.67 2.68 0.34 1.36 0 0 Z " fill="#4C5F73" transform="translate(1250,423)"/>
<path d="M0 0 C0.66 0 1.32 0 2 0 C2 1.32 2 2.64 2 4 C1.01 3.67 0.02 3.34 -1 3 C-0.67 2.01 -0.34 1.02 0 0 Z M3 1 C5 2 5 2 5 2 Z " fill="#4D6074" transform="translate(961,381)"/>
<path d="M0 0 C0.33 0.99 0.66 1.98 1 3 C-0.32 3.99 -1.64 4.98 -3 6 C-1.125 1.125 -1.125 1.125 0 0 Z " fill="#344B61" transform="translate(1326,581)"/>
<path d="M0 0 C0.99 0.33 1.98 0.66 3 1 C2.67 2.32 2.34 3.64 2 5 C1.34 4.34 0.68 3.68 0 3 C0 2.01 0 1.02 0 0 Z " fill="#40556A" transform="translate(1248,576)"/>
<path d="M0 0 C0.99 0.66 1.98 1.32 3 2 C1.02 2.99 1.02 2.99 -1 4 C-1.66 3.34 -2.32 2.68 -3 2 C-2.01 1.34 -1.02 0.68 0 0 Z " fill="#4E6174" transform="translate(992,395)"/>
<path d="M0 0 C0.99 0.33 1.98 0.66 3 1 C3 1.66 3 2.32 3 3 C2.01 3.33 1.02 3.66 0 4 C0 2.68 0 1.36 0 0 Z " fill="#40556A" transform="translate(1322,552)"/>
<path d="M0 0 C0.99 0.33 1.98 0.66 3 1 C2.67 1.99 2.34 2.98 2 4 C1.34 3.67 0.68 3.34 0 3 C0 2.01 0 1.02 0 0 Z " fill="#3C5167" transform="translate(1251,578)"/>
<path d="M0 0 C0.66 0 1.32 0 2 0 C1.67 0.99 1.34 1.98 1 3 C0.34 2.34 -0.32 1.68 -1 1 C-0.67 0.67 -0.34 0.34 0 0 Z " fill="#334960" transform="translate(959,380)"/>
</svg>